<?xml version="1.0" encoding="UTF-8"?>
<svg xmlns="http://www.w3.org/2000/svg" xmlns:serif="http://www.serif.com/" version="1.1" viewBox="0 0 612 612">
  <defs>
    <style>
      .cls-1 {
        fill: #fff;
        fill-rule: evenodd;
      }
    </style>
  </defs>
  <!-- Generator: Adobe Illustrator 28.6.0, SVG Export Plug-In . SVG Version: 1.2.0 Build 709)  -->
  <g>
    <g id="Layer_1">
      <path class="cls-1" d="M537.2,0C578.5,0,612,33.5,612,74.8v462.5c0,41.3-33.5,74.8-74.8,74.8H74.8C33.5,612,0,578.5,0,537.2V74.8C0,33.5,33.5,0,74.8,0h462.5ZM191.8,505.9V236.1h-89.7v269.8h89.7ZM515.2,505.9v-154.7c0-82.9-44.2-121.4-103.3-121.4s-68.9,26.2-80.8,44.5v-38.2h-89.7c1.2,25.3,0,269.8,0,269.8h89.7v-150.7c0-8.1.6-16.1,3-21.9,6.5-16.1,21.2-32.8,46-32.8s45.4,24.8,45.4,61v144.4h89.7ZM147.6,106.1c-30.7,0-50.7,20.2-50.7,46.6s19.4,46.6,49.6,46.6h.6c31.3,0,50.7-20.7,50.7-46.6-.6-26.4-19.4-46.6-50.1-46.6Z"/>
    </g>
  </g>
</svg>