<?xml version="1.0" encoding="UTF-8"?>
<svg id="a" data-name="Layer_1" xmlns="http://www.w3.org/2000/svg" viewBox="0 0 608.37 300">
  <g id="b" data-name="u4R9k5">
    <g>
      <path d="M162.42,82.309c5.679-6.592,10.978-13.989,17.504-20.07,15.018-13.994,33.208-21.038,53.718-21.908,5.147-.218,10.312-.019,15.469-.02,88.637-.033,177.275-.032,265.912-.135,16.232-.019,31.959,2.251,46.546,9.663,27.679,14.065,41.433,37.367,43.766,67.774,1.278,16.65-1.003,32.842-8.819,47.853-12.052,23.144-31.34,36.891-56.613,42.184-7.618,1.595-15.537,2.278-23.333,2.397-21.053.321-42.115.115-63.173.109-1.048,0-2.096-.094-3.495-.161,0-1.604,0-2.973,0-4.342.001-41.15.002-82.299.004-123.449q0-4.432-4.292-4.44c-12.248-.004-24.496-.001-36.745-.002-1.159,0-2.318,0-3.858,0v132.188h-47.111V78.073h-47.946c15.031,26.116,17.343,53.286,6.465,81.124-7.086,18.134-19.732,31.866-37.009,40.992-20.684,10.925-42.497,13.142-65.009,7.071-22.659-6.111-39.703-19.739-51.451-40.165-21.669,39.14-67.187,50.59-102.491,39.088C25.42,194.767,2.599,162.951,2.702,125.158c.104-38.173,22.743-69.684,58.28-80.908,34.76-10.98,79.484-.607,101.438,38.06ZM126.106,125.12c-.083-10.02-1.733-19.908-8.042-28.39-8.787-11.815-21.069-15.31-35.075-13.955-14.054,1.359-24.054,8.596-29.506,21.69-3.985,9.569-4.374,19.6-3.142,29.765,2.147,17.72,13.175,30.097,30.073,32.718,14.69,2.278,27.88-.89,37.442-13.329,6.371-8.289,8.159-18.054,8.25-28.499ZM276.104,124.954c-.004-10.199-1.828-19.944-8.06-28.304-8.534-11.449-20.466-15.049-34.157-13.947-14.333,1.153-24.618,8.223-30.273,21.56-4.236,9.991-4.521,20.459-3.05,31.026,2.407,17.286,13.261,29.064,29.99,31.669,14.707,2.29,27.882-.969,37.401-13.424,6.415-8.394,8.207-18.258,8.149-28.579ZM497.252,167.896c8.713,0,17.128.644,25.409-.136,16.512-1.554,29.037-12.26,33.186-27.688,2.846-10.582,2.746-21.248-.488-31.766-3.703-12.046-11.797-19.939-23.522-24.229-11.215-4.103-22.855-2.57-34.585-2.842v86.661Z"/>
      <path d="M604.701,255.424h-10.886c0-6.66.083-13.176-.026-19.69-.087-5.157-3.539-8-8.436-7.192-3.51.579-5.518,3.128-5.609,7.505-.107,5.15-.03,10.305-.032,15.457,0,1.174,0,2.347,0,3.796h-10.986c0-5.297.007-10.626-.004-15.955-.003-1.609.067-3.232-.107-4.825-.414-3.777-2.915-5.992-6.67-6.073-3.864-.083-6.667,1.833-6.973,5.633-.43,5.333-.265,10.715-.341,16.076-.024,1.687-.004,3.375-.004,5.239h-10.81v-35.839h10.535c.151,1.039.302,2.068.496,3.404,8.324-6.17,16.022-5.651,23.05,2.287,4.09-4.974,9.174-7.337,15.609-6.059,6.325,1.256,10.796,5.847,11.108,12.444.369,7.802.087,15.635.087,23.792Z"/>
      <path d="M521.479,218.774c10.958.063,18.693,7.765,18.706,18.627.013,10.902-7.931,18.71-19.018,18.693-11.2-.017-18.928-7.741-18.802-18.794.126-11.073,7.882-18.591,19.114-18.527ZM513.788,237.01c0,.641-.043,1.286.007,1.924.365,4.661,3.34,7.664,7.488,7.584,4.089-.079,7.128-3.218,7.477-7.721.467-6.036-2.267-10.146-6.937-10.427-4.825-.29-7.962,3.061-8.034,8.64Z"/>
      <path d="M500.767,242.539c-1.235,8.588-8.796,14.047-18.238,13.539-9.937-.535-16.682-7.473-16.998-17.483-.343-10.855,5.612-18.517,15.305-19.695,10.187-1.238,18.071,3.849,20.07,13.408-3.556,0-7.018.076-10.471-.068-.647-.027-1.368-.846-1.867-1.455-3.298-4.025-8.929-3.323-10.869,1.498-1.415,3.515-1.431,7.181.148,10.649,2.023,4.443,7.399,4.997,10.615,1.375.786-.886,2.19-1.594,3.367-1.69,2.944-.238,5.921-.079,8.937-.079Z"/>
      <path d="M457,256.095c-3.677.006-6.386-2.413-6.46-5.768-.078-3.507,2.644-6.195,6.357-6.277,3.624-.08,6.611,2.611,6.673,6.012.063,3.423-2.772,6.027-6.57,6.033Z"/>
    </g>
  </g>
</svg>
