<?xml version="1.0" encoding="UTF-8"?>
<svg id="a" data-name="Layer_1" xmlns="http://www.w3.org/2000/svg" viewBox="0 0 268.225 300">
  <path d="M231.912,207.873c.33-8.709.266-17.45-.068-26.161-.167-4.352-2.647-5.699-7.198-4.758v36.479c5.21.452,7.079-.634,7.265-5.56Z"/>
  <path d="M268.225,15.553h0s-143.227,0-143.227,0h0s-124.999,0-124.999,0v142.946h124.999v125.279h143.227v-125.279h0V15.553ZM193.478,51.902v-18.229h56.613v18.14h-17.44v88.554h-21.624V51.902h-17.549ZM142.322,51.833v-18.16h41.894v17.938h-10.034v70.585h10.094v18.188h-42.013v-18.152h10.29V51.833h-10.23ZM69.988,128.521c-2.244,6.616-7.147,10.711-13.877,12.582-6.391,1.777-12.89,2.012-19.356.707-10.592-2.137-17.269-9.633-18.994-21.096-.425-2.824-.579-5.694-.738-8.549-.081-1.455.103-2.924.181-4.713,6.968-.588,13.863-1.171,20.725-1.75.404,3.795.655,7.409,1.228,10.971.263,1.633.974,3.269,1.807,4.718,1.293,2.25,3.563,3.078,5.977,2.513,2.392-.56,3.408-2.339,3.736-4.527.518-3.452-.016-6.775-1.551-9.943-2.21-4.56-5.688-8.068-9.32-11.475-5.362-5.029-11.067-9.763-15.928-15.241-8.236-9.281-10.135-20.353-6.93-32.182,2.973-10.968,10.619-16.894,21.658-18.692,4.946-.805,9.895-.745,14.787.444,6.783,1.648,11.662,5.586,14.293,12.109,2.647,6.564,2.696,13.39,2.096,20.44-6.801.529-13.435,1.045-20.346,1.583,0-1.837.128-3.519-.03-5.173-.242-2.526-.399-5.116-1.109-7.527-.865-2.938-3.094-4.132-5.879-3.783-2.566.321-4.307,2.112-4.755,4.962-.597,3.799.312,7.368,2.613,10.303,2.515,3.209,5.306,6.279,8.364,8.972,6.057,5.336,12.185,10.551,16.914,17.187,8.263,11.595,8.851,24.136,4.434,37.16ZM114.06,141.828c-5.377,1.065-10.803,1.053-16.183-.035-9.675-1.956-14.981-8.192-16.771-17.595-.604-3.175-.959-6.448-.968-9.677-.076-26.176-.043-52.352-.043-78.528v-2.406h21.033v2.882c0,26.795-.006,53.591.019,80.386.001,1.299.109,2.649.47,3.887.598,2.05,2.08,3.254,4.273,3.312,2.281.06,3.912-1.04,4.547-3.225.359-1.235.448-2.584.449-3.881.024-26.95.046-53.901-.033-80.851-.006-2.179.629-2.737,2.728-2.692,6.029.128,12.063.045,18.305.045.051,1.067.125,1.891.126,2.715.006,25.944.073,51.887-.064,77.83-.022,4.135-.622,8.344-1.553,12.381-1.992,8.636-7.676,13.737-16.335,15.452ZM194.032,240.599c-.024,3.816-.732,7.716-1.715,11.421-2.142,8.07-7.562,12.888-15.759,14.626-5.231,1.109-10.484,1.195-15.713.234-10.254-1.885-16.182-8.091-17.816-18.731-.55-3.581-.873-7.233-.884-10.854-.074-25.401-.039-50.802-.039-76.203v-2.603h21.112v3.115c0,26.485-.005,52.971.013,79.456,0,1.387.04,2.806.329,4.153.518,2.418,2.319,3.777,4.64,3.761,2.341-.016,4.04-1.362,4.556-3.838.281-1.351.378-2.762.379-4.145.021-26.563.016-53.126.016-79.688,0-.905,0-1.81,0-2.837h20.817c.071.503.206,1.011.206,1.519-.015,26.872.026,53.744-.142,80.615ZM233.129,158.818c10.664.619,16.874,6.273,18.748,16.748,2.336,13.055,2.34,26.228-.04,39.275-1.983,10.87-8.9,16.224-20.783,16.847-2.071.109-4.153.015-6.52.015v33.746h-21.33c0-35.629,0-71.215.002-106.803.129-.082.257-.234.383-.233,9.848.094,19.718-.166,29.539.404Z"/>
</svg>