<?xml version="1.0" encoding="UTF-8"?>
<svg id="a" data-name="Layer_1" xmlns="http://www.w3.org/2000/svg" viewBox="0 0 1565.177 300">
  <defs>
    <style>
      .b {
        fill-rule: evenodd;
      }
    </style>
  </defs>
  <path class="b" d="M1040.596,238.176c-11.781,7.443-36.217,4.841-58.341,4.841-17.322,0-50.065,3.002-56.022-6.225-5.399-8.362-1.556-32.986-1.556-45.64v-92.656c0-13.015-3.16-39.368,1.556-47.015,5.36-8.716,24.852-6.924,39.675-6.924,18.863,0,35.957-1.47,49.02-1.375,8.331.055,22.604,3.772,25.669,8.983,2.57,4.346.959,10.972,1.564,17.982.448,5.25,2.554,12.065,2.334,17.975-1.368,37.176-.92,84.01-.77,117.555.047,9.997-3.442,21.732-3.128,32.499M961.239,154.511c.165,8.779-3.985,51.488,2.342,56.698,6.256,5.14,27.901,3.663,34.228,1.375,15.263-5.509,11.679-17.597,11.679-36.641,0-28.278-.872-59.826-.77-82.98.031-8.488,1.745-18.847-3.898-22.816-2.224-1.564-6.264-1.336-10.893-2.083-12.732-2.028-24.812-.872-32.688,4.849-.699,24.404-.448,55.653,0,81.597"/>
  <path class="b" d="M1420.295,164.09c.204,24.852,3.45,55.889-3.128,76.748-10.162,1.792-22.84,1.352-35.006,1.375,3.395-8.292-.055-17.857.778-26.966.197-2.091,1.619-4.692,1.556-6.909-.055-1.988-1.855-2.389-2.334-4.849-.817-4.236.739-11.499.778-17.283.039-5.926-.7-12.033-.778-17.283-.102-6.814,2.169-14.155,0-19.366-4.016-9.644-19.971-5.871-31.886-5.525-1.816.464-2.091,2.295-3.898,2.759-1.423,29.889.927,62.302,0,94.047-8.575,1.006-23.744.629-35.792.692.33-12.418,1.462-25.095-2.342-37.341,2.853-4.244,1.234-8.362.786-13.141-1.462-15.798,2.837-36.499.786-53.248-.865-6.869-1.517-17.558-1.572-26.958-.016-5.714,1.863-11.813,1.572-17.291-.126-2.115-2.043-4.071-2.342-6.225-1.226-8.748,1.941-17.92,2.342-26.966.197-4.991-1.674-9.903,0-14.516,7.246-2.531,13.974-1.658,23.327-1.383,23.916.684,63.387-2.57,78.587-.699,4.912.613,7.969,4.614,10.893,6.924.621,16.097.385,34.118-.77,49.774-.621,8.127,2.939,17.079.77,23.516-2.358,7.011-18.21,9.809-18.674,16.592-.393,5.753,6.799,7.396,10.107,11.766,3.718,4.881,2.468,8.936,6.24,11.758M1380.605,111.525c15.098-5.195,14.194-35.344-.778-40.107-8.724.778-21.024-1.627-27.241,1.391-1.203,13.911-.055,24.254,0,37.341,6.421,3.324,17.652.487,28.019,1.375"/>
  <path class="b" d="M82.632,43.213c13.283.904,25.331-.998,38.126.684.77,63.867,2.311,134.963-.778,198.452-37.317,2.861-86.651,6.602-119.04-3.45-.92-10.634-1.548-29.528,0-42.182,13.691-6.461,36.562-6.099,50.576,0v20.741c4.551,3.356,19.971,2.759,25.669.692,1.886-18.454.778-39.132.778-60.157,0-20.796,1.595-42.04,1.556-62.224-.031-17.747-4.103-35.384.778-50.489.432-.998,1.218-1.682,2.334-2.067"/>
  <path class="b" d="M223.456,43.97c.346,11.098,6.24,20.725,7.781,31.116.409,2.79-.511,6.083,0,8.991,2.798,16.065,13.29,30.786,13.998,47.715,7.262,14.265,8.865,30.872,14.013,47.023,1.981,6.225,7.191,18.494,8.551,26.274.393,2.224-.676,5.266,0,7.608.896,3.065,4.331,5.132,5.454,8.292,2.696,7.584.904,16.67,5.447,23.516-9.392,1.666-23.987,2.051-34.236.684-2.209-6.916-7.38-14.469-5.447-22.816-7.639-13.809-8.441-29.693-15.562-43.557-13.856-1.517-28.538.77-42.009-.699-5.863,6.327-3.081,20.316-9.345,26.282-.417,2.672,1.391,3.372.786,6.225-1.258,4.346-6.138,6.956-8.567,12.442-2.939,6.68-1.603,16.23-7.003,20.057-7.545,5.344-19.02-.11-30.346,0,4.048-14.422,6.398-27.225,10.893-42.182,1.226-4.04,4.386-7.726,5.447-11.758,6.217-23.563,14.336-46.977,21.787-71.223,7.482-24.349,14.65-48.752,21.794-72.606.432-.998,1.203-1.682,2.326-2.067,11.176.44,24.349-.896,34.236.684M201.669,110.351c-4.535,11.436-8.323,27.155-10.893,38.032,4.433,4.779,20.553,3.183,24.899.692-2.326-13.51-5.957-24.286-9.329-38.024-.927-.802-2.759-.786-4.676-.699"/>
  <path class="b" d="M404.736,102.699c-10.555,3.089-23.052,1.627-34.236,0,.196-9.227-.66-20.238-1.556-30.424-4.818-6.555-12.835-2.169-23.343-2.075-5.675.047-11.176-2.193-14.784-2.083-5.494.189-11.184,3.262-14.006,5.533.346,35.273-.77,68.267-.77,106.488,0,12.331-2.531,28.554,1.548,34.581,6.633,9.785,36.256,2.28,49.028,2.759,7.152-8.025,1.556-22.234,4.661-30.416,9.353.11,22.887-2.955,33.458,0,2.908,14.548,1.823,35.698,0,50.474-5.014,4.181-13,6.154-21.787,6.908-19.507,1.682-47.086,1.187-68.464,0-12.449-.684-24.592-.88-31.902-5.525-3.56-57.917-.566-121.657-1.556-181.869,6.728-17.707,38.103-13.126,69.25-13.126,14.273,0,41.05-2.405,48.234,1.383,7.191,3.781,7.003,16.128,7.003,24.199-.008,11.247.369,23.413-.778,33.191"/>
  <path class="b" d="M1557.988,93.854c-7.254,2.672-19.625,5.777-25.669,0,7.121-20.089-11.577-30.102-33.458-26.966-2.311.322-4.016,1.926-7.003,2.767-8.331,2.334-16.489,2.963-19.46,9.667-4.786,10.854.063,22.643,0,35.965,10.241,7.624,32.664.149,45.129,5.533,18.093-2.822,38.087.361,43.589,13.832,1.132,2.798.307,8.386,1.556,12.442,2.633,8.606,1.58,22.596,1.556,38.032-.024,6.06,1.446,11.593.77,16.592-.574,4.268-2.9,8.08-3.12,11.758-.456,7.962-.008,15.853-5.447,20.749-26.023,9.793-63.929.354-93.363,6.225-8.127-1.312-14.234-4.393-20.993-6.924-8.543-9.691.7-27.666-2.342-44.948,11.53-1.729,21.904-7.144,32.664-2.067-1.839,11.42,1.226,19.326,7.011,25.583,17.346,5.785,41.231,3.12,49.012-8.991-1.061-4.103-2.319-8.559-1.54-13.133.794-4.668,6.563-14.241,3.882-21.441-2.397-6.468-4.244-12.764-10.893-17.975-30.463-4.401-74.264,6.901-84.796-14.524,1.729-21.292-.833-43.377-.794-62.224.024-2.334,1.643-4.731,1.564-6.916-.079-2.256-1.768-4.676-1.564-6.916.519-5.471,5.738-9.738,8.575-13.833,14.069-4.331,34.338-.817,52.902-1.383,3.065-.094,7.828-.888,10.115-.692,1.996.173,4.158,2.012,6.217,2.075,10.084.283,19.657-3.922,28.797-2.759,2.947.362,13.11,3.851,14.776,5.525,9.117,9.188-2.531,32.311,2.326,44.948"/>
  <path class="b" d="M673.163,95.18c-8.622,2.766-20.45,5.533-27.241-.699,10.233-35.172-49.719-31.65-62.239-15.208-2.499,14.454-3.615,26.29-.778,39.407,20.946,3.875,49.468-1.635,71.569,1.391,16.426,2.24,24.451,14.643,26.463,31.116,1.761,14.399,1.988,38.582,0,54.624-.605,4.818-1.407,11.396-2.334,17.283-3.238,20.537-23.476,17.291-53.688,17.291-22.282,0-40.028,1.265-59.127,0-7.93-.519-18.651-4.771-20.222-11.058-1.336-5.305,2.491-10.115,3.112-15.224,1.092-9.023-1.871-17.566.778-24.883,9.911-2.9,24.058-7.624,33.45-1.391.692,8.803-1.116,14.1,3.112,20.057,8.771,12.331,51.613,11.702,55.244-2.075.904-19.515,10.516-49.271-10.115-54.624-16.607-.44-38.834.213-56.801,0-11.491-.142-27.634-4.087-31.124-12.457-4.087-9.801-.841-27.603-.778-42.174.063-14.697.086-28.365,0-40.107,5.242-16.804,32.837-12.693,56.793-11.75,6.264.243,12.803-1.038,17.904-.692,2.617.165,4.621,1.957,7.003,2.075,10.272.495,23.068-3.71,32.664-2.766,8.15.794,17.291,6.225,18.682,11.758,1.407,5.596-2.138,10.909-2.326,17.283-.267,8.528,2.499,16.3,0,22.824"/>
  <path class="b" d="M908.341,43.235c1.556,11.569-2.169,22.793,3.112,32.499-.11,3.136-1.91,4.763-2.334,7.6,1.635,51.103,2.311,105.789,1.556,154.903-35.226,2.523-82.336,5.447-112.807-3.466,1.643-12.567-1.933-25.347,0-37.34,9.989-7.899,33.104-7.097,46.678-2.759.472,6.5-.975,14.69.778,20.049,5.046,5.887,24.412,5.195,27.225-1.383,1.517-3.537.251-10.964.778-15.908,1.973-18.431-1.517-42.182-1.548-65.682-.024-12.796,1.423-25.536.77-37.348-.77-13.998-1.839-27.453-.77-39.415.377-4.291,2.884-7.01,2.334-11.75,11.428,1.477,21.857-.416,34.228,0"/>
  <path class="b" d="M1088.066,43.174c.841,11.915-2.908,21.637,2.326,30.432.943,2.633-2.971,5.839-3.112,9.667-.047,1.902,2.036,2.9,2.342,5.541.197,1.674-1.289,2.719-1.556,4.841-.637,5.062.016,11.797,0,17.283-.031,7.718,1.03,14.674,7.781,15.216,13.786,1.085,13.188-15.475,18.666-23.507-1.713-16.057,12.19-18.211,11.671-33.198,5.352-5.344,6.665-17.323,8.567-23.508,8.307-1.886,20.82-.888,31.116-.699.92,7.907-.307,16.057-3.112,22.824-1.776,4.291-6.02,9.211-8.551,15.908-1.768,4.645-1.753,9.668-3.89,13.825-.927,1.8-3.12,3.01-3.898,4.849-2.806,6.657-1.006,14.257-7.773,17.975,1.155,10.689-8.41,18.242-7.773,26.966.519,7.364,7.223,12.662,6.987,21.441,6.06,11.216,11.129,23.295,14.006,37.333,4.464,11.239,13.558,18.383,16.348,31.116-8.811,2.79-22.997.778-34.236,1.383-.676-6.775-3.773-11.396-7.789-15.208-2.209-6.327-4.032-13-8.551-17.291-.731-2.963,2.405-4.566.778-6.225.582-4.079-4.362-5.903-6.217-9.675-1.619-3.254-.841-7.168-3.12-10.375-4.307-6.06-17.417-12.921-21.008-1.375-1.163,3.725,1.423,7.82,2.326,13.817,1.281,8.347-1.635,18.548-1.54,25.59.071,5.573,1.375,13.244.77,18.674-8.339,2.963-22.62.644-33.466,1.383-1.533-13.047,1.745-23.909-3.097-34.581,3.584-4.032,1.312-8.182.786-13.133-.692-6.382,1.682-14.595,1.54-22.132-.369-19.625-4.189-46.293-2.326-68.448,1.32-15.884-1.933-37.506,2.326-55.315,9.29-1.894,23.374.479,32.68-1.391"/>
  <path class="b" d="M448.306,44.102c-.644,13.44,4.448,29.819.778,39.407,1.462,8.221,2.091,20.828,0,29.041,2.452,6.122.794,13.141,7.781,13.833,10.28,1.022,13.157-17.291,18.674-22.824.212-12.481,7.71-18.485,12.449-26.966,2.586-11.058,7.419-20.144,10.893-30.424,8.873-1.588,24.624-1.124,33.45-.692,2.193,13.424-2.083,22.871-8.551,30.424-3.018,14.799-12.756,30.055-18.674,43.565-1.721,3.906-2.539,9.431-4.668,14.516-2.224,5.306-5.572,10.288-5.454,13.833.165,4.747,4.708,11.153,7.003,17.291,2.279,6.083,5.038,12.096,7.011,17.283,4.535,11.931,8.135,25.221,13.22,34.574,4.032,7.411,13.51,13.738,11.663,22.132-2.625,3.56-9.557,2.067-14.768,2.067-6.138,0-12.984,1.045-17.126,0-11.663-2.931-14.776-25.646-23.335-33.191,2.688-6.114-2.782-9.431-5.447-15.908-3.254-7.875-5.172-18.313-15.562-18.658-12.096-.409-9.251,11.537-8.559,20.741,1.116,14.855-.597,35.281-1.556,44.948-7.742,2.617-23.681,1.477-32.68.684.817-52.973-3.977-110.449-.778-158.345.794-11.876-2.806-26.085,1.556-36.649,7.836-2.53,23.626-1.532,32.68-.684"/>
  <path class="b" d="M1298.914,43.283c-1.147,6.319-1.352,16.544,0,22.824-24.27,5.698-54.411-1.839-80.921,1.375.134,1.737-1.187,2.177-2.326,2.767-1.816,5.761-.275,11.53-.794,17.283-.802,9.062-4.331,20.238-2.319,27.673,3.694,13.66,33.104,4.464,47.448,5.525.582,5.816-.377,15.617,0,23.516-11.396,2.994-30.581-3.922-42.009.684-10.453,4.213-4.197,28.184-4.668,39.415-.11,2.869-1.698,6.06-1.556,8.3.409,6.232,5.274,14.273,3.898,19.358,19.759,12.953,57.107-3.474,83.248,4.842v23.516c-36.169-2.122-85.629,1.257-119.81-1.383-.157-65.705-2.9-131.599,0-194.994,39.117-1.721,81.362-.055,119.81-.699"/>
  <path d="M819.414,170.284c-29.402,29.033-77.251,29.033-106.661,0-14.249-14.069-22.101-32.759-22.101-52.643s7.844-38.582,22.093-52.651c14.249-14.068,33.191-21.818,53.334-21.818s39.093,7.75,53.335,21.818c29.418,29.026,29.41,76.261,0,105.294M714.953,67.152l-.008.008c-13.652,13.479-21.173,31.407-21.181,50.482,0,19.059,7.529,36.987,21.181,50.474,28.2,27.831,74.076,27.831,102.268,0,28.2-27.838,28.2-73.125,0-100.955-13.652-13.487-31.815-20.914-51.126-20.914s-37.474,7.427-51.134,20.906"/>
  <path d="M713.845,66.069l-.016.024,8.048,7.962-.024-.086,30.338,10.555,13.911-28.625,13.872,28.609,30.33-10.524-10.657,29.945,28.986,13.699-28.994,13.731,10.681,29.937-.086-.032,8.064,7.954.024-.024c28.844-28.475,28.844-74.641,0-103.124-28.852-28.483-75.624-28.483-104.476,0"/>
  <path d="M703.548,117.645l28.978,13.699-10.657,29.945,30.33-10.531,13.872,28.609,13.911-28.617,30.251,10.516-26.581-26.243c-9.714,9.565-25.457,9.557-35.163-.016-9.706-9.588-9.714-25.126-.024-34.707l-26.589-26.243,10.665,29.866-28.994,13.722Z"/>
  <path d="M783.678,100.266c-9.714-9.588-25.473-9.588-35.187,0l-.024.032,35.179,34.723.031-.016c9.714-9.597,9.722-25.15,0-34.739"/>
</svg>