<?xml version="1.0" encoding="UTF-8"?>
<svg id="a" data-name="Layer_1" xmlns="http://www.w3.org/2000/svg" viewBox="0 0 1224.573 300">
  <g id="b" data-name="Group_1659">
    <g id="c" data-name="Group_1658">
      <path id="d" data-name="Path_1200" d="M507.394,85.252c-35.541,0-64.353,28.812-64.354,64.353,0,35.541,28.812,64.353,64.353,64.353,35.541,0,64.354-28.812,64.354-64.353h0c0-35.541-28.812-64.353-64.353-64.353M507.394,192.645c-23.77,0-43.04-19.27-43.04-43.04s19.27-43.04,43.04-43.04c23.77,0,43.04,19.27,43.04,43.04h0c-.046,23.751-19.289,42.994-43.04,43.04"/>
      <path id="e" data-name="Path_1201" d="M424.421,41.485h-15.75c-1.527.004-2.763,1.243-2.763,2.77v56.471c-8.772-10.308-21.76-16.059-35.288-15.627-32.502,0-55.208,26.234-55.208,63.795,0,38.265,21.528,64.024,53.57,64.024,14.369.598,28.193-5.547,37.377-16.614v11.058c.004,1.527,1.243,2.763,2.77,2.763h15.306c1.526.004,2.766-1.229,2.77-2.755V44.255c0-1.53-1.24-2.77-2.77-2.77M406.353,148.901c0,32.686-18.107,44.333-35.05,44.333-20.732,0-34.117-17.403-34.117-44.333,0-25.966,14.319-44.104,34.821-44.104,23.724,0,34.354,22.148,34.354,44.104"/>
      <path id="f" data-name="Path_1202" d="M764.67,41.485h-15.78c-1.527.004-2.763,1.243-2.763,2.77v56.471c-8.772-10.308-21.76-16.059-35.288-15.627-32.502,0-55.208,26.234-55.208,63.795,0,38.265,21.528,64.024,53.57,64.024,14.369.598,28.193-5.547,37.377-16.614v11.058c.004,1.527,1.243,2.763,2.77,2.763h15.306c1.526.004,2.766-1.229,2.77-2.755V44.255c0-1.53-1.24-2.77-2.77-2.77M746.571,148.901c0,32.686-18.107,44.333-35.05,44.333-20.732,0-34.117-17.403-34.117-44.333,0-25.966,14.319-44.104,34.821-44.104,23.724,0,34.354,22.148,34.354,44.104"/>
      <path id="g" data-name="Path_1203" d="M643.234,191.528c-.645-.517-1.487-.719-2.296-.551-1.568.281-3.159.415-4.752.398-8.755,0-23.449-3.65-23.449-28.086v-55.239h26.471c1.53,0,2.77-1.24,2.77-2.77v-13.224c0-1.53-1.24-2.77-2.77-2.77h-26.471v-30.872c.004-1.526-1.229-2.766-2.755-2.77-.003,0-.005,0-.008,0h-15.574c-1.526-.004-2.766,1.229-2.77,2.755v30.887h-12.765c-1.53,0-2.77,1.24-2.77,2.77v13.224c0,1.53,1.24,2.77,2.77,2.77h12.543v56.861c0,13.875,4.224,46.162,43.377,46.162,2.418.028,4.834-.143,7.224-.513,1.325-.23,2.293-1.379,2.296-2.724v-14.158c-.002-.836-.382-1.626-1.033-2.15"/>
      <path id="h" data-name="Path_1204" d="M1069.341,191.528c-.645-.517-1.487-.719-2.296-.551-1.568.281-3.159.415-4.752.398-8.755,0-23.449-3.65-23.449-28.086v-55.239h26.472c1.53,0,2.77-1.24,2.77-2.77v-13.224c0-1.53-1.24-2.77-2.77-2.77h-26.472v-30.872c.004-1.526-1.229-2.766-2.755-2.77-.003,0-.005,0-.008,0h-15.543c-1.526-.004-2.766,1.229-2.77,2.755v30.887h-12.773c-1.53,0-2.77,1.24-2.77,2.77v13.224c0,1.53,1.24,2.77,2.77,2.77h12.543v56.861c0,13.875,4.224,46.162,43.377,46.162,2.418.028,4.834-.143,7.224-.513,1.325-.23,2.293-1.379,2.296-2.724v-14.158c-.002-.836-.382-1.626-1.033-2.15"/>
      <path id="i" data-name="Path_1205" d="M1135.776,85.091c-15.601-.377-30.873,4.519-43.346,13.898-1.026.887-1.26,2.387-.551,3.543l7.423,12.069c.798,1.301,2.499,1.709,3.799.911.106-.065.207-.137.303-.215,9.059-6.654,19.962-10.329,31.201-10.515,17.655,0,26.242,8.962,26.242,27.397v.245h-3.765c-18.367,0-74.233,0-74.233,43.147,0,24.489,21.352,37.339,42.443,37.339,14.278.223,27.778-6.492,36.214-18.015v12.459c0,1.53,1.24,2.77,2.77,2.77h15.084c1.53,0,2.77-1.24,2.77-2.77v-74.716c0-30.665-16.477-47.548-46.392-47.548M1156.852,150.959h3.964v2.296c0,19.622-13.247,40.622-32.969,40.622-15.949,0-23.219-9.995-23.219-19.27,0-20.992,27.903-23.678,52.224-23.678"/>
      <path id="j" data-name="Path_1206" d="M811.215,89.277h-15.78c-1.527.004-2.763,1.243-2.763,2.77v115.33c0,1.527,1.236,2.766,2.763,2.77h15.78c1.53,0,2.77-1.24,2.77-2.77v-115.322c0-1.53-1.24-2.77-2.77-2.77"/>
      <path id="k" data-name="Path_1207" d="M984.47,89.277h-15.75c-1.527.004-2.763,1.243-2.763,2.77v115.33c0,1.527,1.236,2.766,2.763,2.77h15.78c1.53,0,2.77-1.24,2.77-2.77v-115.322c0-1.53-1.24-2.77-2.77-2.77"/>
      <path id="l" data-name="Path_1208" d="M990.546,54.158c.004,7.714-6.245,13.97-13.959,13.974-7.713.004-13.97-6.245-13.974-13.959-.004-7.714,6.245-13.97,13.959-13.974.002,0,.005,0,.007,0,7.705.013,13.95,6.254,13.967,13.959"/>
      <path id="m" data-name="Path_1209" d="M817.284,54.158c.004,7.714-6.245,13.97-13.959,13.974-7.713.004-13.97-6.245-13.974-13.959-.004-7.714,6.245-13.97,13.959-13.974.002,0,.005,0,.007,0,7.705.013,13.95,6.254,13.967,13.959"/>
      <path id="n" data-name="Path_1210" d="M1221.81,41.485h-15.788c-1.531,0-2.763,1.714-2.763,3.826v161.025c0,2.112,1.24,3.826,2.763,3.826h15.78c1.531,0,2.77-1.714,2.77-3.826V45.319c0-2.12-1.24-3.826-2.77-3.826"/>
      <path id="o" data-name="Path_1211" d="M883.382,242.22c20.824,0,37.859-9.229,37.859-33.604v-8.755c0-3.788.237-7.569.237-7.569h-.475c-7.31,12.477-21.07,19.722-35.494,18.688-33.367,0-53.479-26.739-53.479-61.285,0-34.308,19.132-59.869,52.292-59.869,28.867,0,37.622,17.747,37.622,17.747h.475c-.16-1.256-.239-2.522-.237-3.788v-10.859c0-1.691,1.37-3.061,3.061-3.061h15.826c1.691,0,3.061,1.371,3.061,3.061v114.503c0,39.512-30.045,54.657-60.336,54.657-13.146-.138-26.114-3.048-38.058-8.541-1.628-.775-2.352-2.699-1.638-4.355l4.959-11.778c.71-1.714,2.675-2.528,4.39-1.818.021.009.043.018.064.028,9.397,4.161,19.532,6.398,29.808,6.582M921.655,149.926c0-31.232-15.145-40.224-33.834-40.224-20.824,0-32.655,15.145-32.655,39.512,0,24.841,13.247,41.884,34.783,41.884,16.561,0,31.706-9.949,31.706-41.173"/>
    </g>
  </g>
  <path d="M122.715,188.508c-21.232,0-38.505-17.273-38.505-38.505s17.273-38.507,38.505-38.507,38.507,17.273,38.507,38.507-17.273,38.505-38.507,38.505ZM122.715,132.114c-9.864,0-17.888,8.026-17.888,17.889s8.024,17.888,17.888,17.888,17.889-8.024,17.889-17.888-8.026-17.889-17.889-17.889Z"/>
  <path d="M122.715,230.665c-44.477,0-80.662-36.185-80.662-80.662s36.185-80.664,80.662-80.664,80.664,36.185,80.664,80.664-36.185,80.662-80.664,80.662ZM122.715,89.957c-33.109,0-60.045,26.937-60.045,60.046s26.936,60.045,60.045,60.045,60.046-26.936,60.046-60.045-26.937-60.046-60.046-60.046Z"/>
  <path d="M122.612,272.615C55.003,272.615,0,217.612,0,150.003S55.003,27.39,122.612,27.39s122.614,55.005,122.614,122.614-55.005,122.612-122.614,122.612ZM122.612,47.945c-56.274,0-102.057,45.783-102.057,102.059s45.783,102.057,102.057,102.057,102.059-45.783,102.059-102.057-45.783-102.059-102.059-102.059Z"/>
</svg>