<?xml version="1.0" encoding="UTF-8"?>
<svg id="a" data-name="Layer_1" xmlns="http://www.w3.org/2000/svg" viewBox="0 0 942.345 300">
  <path d="M329.113,151.326c.795-.175,1.64-.232,2.377-.543,5.386-2.27,9.879-5.901,14.36-9.534,1.838-1.49,3.612-3.059,5.374-4.639,1.339-1.201,2.874-1.681,4.623-1.391,1.746.289,3.467.744,5.219.979,1.292.173,2.619.055,3.923.16,2.253.18,4.502.19,6.662,1.177,2.638,1.205,3.53,3.155,2.186,5.784-1.106,2.165-2.287,4.295-3.507,6.397-3.138,5.405-6.08,10.91-8.519,16.666-1.281,3.025-2.444,6.1-3.625,9.166-.186.482-.184,1.035-.261,1.503,1.078.5,1.572-.161,2.028-.751,1.827-2.363,3.698-4.698,5.416-7.139,4.155-5.903,8.203-11.882,12.352-17.789,3.157-4.495,6.443-8.899,9.594-13.398,1.568-2.239,3.495-2.883,6.14-2.21,1.525.388,3.179.25,4.771.398,1.702.158,3.402.352,5.098.571,2.586.334,4.588,2.539,4.023,5.454-.274,1.419-.757,2.809-1.266,4.168-1.47,3.921-3.012,7.816-4.503,11.73-.745,1.957-1.449,3.931-2.147,5.906-.106.301-.079.65-.126,1.099,1.168.101,1.801-.606,2.343-1.233,1.907-2.207,3.869-4.386,5.568-6.75,4.438-6.177,7.76-12.986,10.948-19.861.523-1.129,1.04-2.263,1.623-3.361.882-1.663,1.472-3.398,1.727-5.272.239-1.753,1.734-3.211,3.536-3.55,2.583-.487,5.162-1.016,7.765-1.369,2.288-.31,4.598-.211,6.811.562,2.155.752,3.59,2.193,3.665,4.564.064,2.006-.08,4.019-.138,6.028-.011.392-.049.784-.095,1.492,1.547-.66,2.933-1.114,4.185-1.809,6.341-3.521,12.39-7.487,17.884-12.237,1.193-1.032,2.127-2.367,3.153-3.585.491-.584.908-1.23,1.374-1.836.897-1.166,2.018-1.567,3.494-1.198,2.646.662,5.309,1.26,7.98,1.815,1.127.234,2.316.182,3.432.45,1.812.435,3.66.855,5.361,1.588,3.255,1.403,3.873,3.164,2.764,6.487-1.488,4.457-3.479,8.673-5.878,12.707.965.465,1.451-.217,1.982-.748,2.213-2.216,4.403-4.455,6.632-6.656,3.877-3.827,8.274-6.953,12.997-9.659,2.521-1.445,5.137-1.817,7.944-1.194,3.247.721,5.505,3.262,5.489,6.608-.017,3.383-.177,6.779-.542,10.141-.171,1.577-.851,3.139-1.506,4.617-2.314,5.223-4.179,10.606-5.922,16.036-.127.395-.144.85-.356,1.187-.798,1.268-.557,2.248.54,3.248,1.11,1.012,2.289.993,3.456.416,1.365-.676,2.734-1.422,3.918-2.367,3.372-2.689,6.764-5.371,9.941-8.281,5.799-5.312,11.462-10.773,17.149-16.206.949-.907,1.805-1.934,2.579-2.997,4.913-6.745,9.899-13.441,14.646-20.302,3.511-5.074,6.698-10.372,10.018-15.577.174-.272.243-.611.429-1.098-.708,0-1.241-.041-1.766.007-2.798.255-5.605.448-8.388.818-10.974,1.458-22.035,1.761-33.059,2.546-4.029.287-8.058.568-12.089.831-4.227.276-8.46.472-12.683.803-4.409.346-8.804.856-13.213,1.207-2.914.232-5.842.271-8.76.462-4.506.295-9.005.705-13.513.953-3.051.168-6.119.289-9.166.141-1.528-.074-3.143-.565-4.512-1.27-2.694-1.386-3.422-3.537-2.673-6.463.312-1.22,1.059-2.461,1.934-3.383,2.992-3.153,6.615-5.089,11.065-5.472,4.252-.366,8.48-1.014,12.724-1.485,3.294-.366,6.601-.62,9.896-.979,3.504-.382,6.999-.848,10.502-1.242,1.519-.171,3.051-.23,4.573-.38,4.816-.475,9.631-.972,14.446-1.454,3.79-.379,7.585-.717,11.371-1.134,3.293-.362,6.574-.83,9.865-1.208,1.519-.175,3.052-.222,4.574-.371,4.477-.438,8.95-.907,13.427-1.346,2.872-.282,5.75-.508,8.62-.806,2.952-.307,5.896-.693,8.847-1.002,2.412-.252,4.828-.493,7.249-.64,1.487-.09,2.518-.585,3.338-1.946,6.061-10.059,12.198-20.073,18.317-30.097,2.638-4.321,5.284-8.637,7.941-12.947.437-.708.924-1.39,1.434-2.049,1.548-2.003,3.572-2.835,6.07-2.281,2.667.591,5.361,1.116,7.963,1.926,1.821.566,3.543,1.495,5.245,2.384,1.945,1.016,2.819,2.745,2.367,4.87-.327,1.536-.875,3.084-1.631,4.458-1.941,3.53-4.036,6.977-6.101,10.439-4.379,7.339-8.78,14.665-13.162,22.003-.094.157-.063.388-.118.789,1.448-.138,2.808-.305,4.174-.39,5.143-.32,10.29-.586,15.432-.927,2.286-.152,4.563-.434,6.844-.656.416-.04.832-.092,1.249-.111,2.694-.117,4.45,1.011,4.649,3.679.297,3.991.522,8.011-.12,12.025-.294,1.838-1.335,2.926-2.894,3.478-1.915.679-3.899,1.342-5.903,1.561-5.156.564-10.339.891-15.513,1.292-3.804.295-7.61.56-11.416.834-2.821.204-5.64.466-8.465.575-1.47.057-2.427.607-3.17,1.88-2.202,3.775-4.629,7.425-6.7,11.268-1.45,2.69-2.5,5.599-3.654,8.441-.966,2.381-1.832,4.802-2.726,7.212-1.005,2.706-1.948,5.436-2.996,8.125-1.724,4.425-2.853,9.02-4.049,13.6-.613,2.347-.904,4.723-.736,7.133.168,2.412,1.333,3.813,3.96,3.188,1.597-.38,3.223-.796,4.704-1.48,7.408-3.418,14.167-7.929,20.956-12.412,8.185-5.404,15.904-11.411,23.487-17.598,4.246-3.464,8.303-7.159,12.447-10.748.781-.676,1.602-1.309,2.347-2.02,4.576-4.369,9.135-8.754,13.853-13.281,4.497,1.694,9.465,2.942,13.911,5.965-.398.677-.649,1.234-1.014,1.702-3.327,4.269-6.626,8.561-10.025,12.771-4.931,6.107-9.954,12.139-14.897,18.236-.781.964-1.448,2.053-1.993,3.169-1.833,3.755-3.664,7.515-5.331,11.345-.599,1.376-.729,2.956-1.124,4.661,2.574.331,4.623-.471,6.517-1.571,5.328-3.094,9.845-7.231,14.199-11.516,4.012-3.948,7.753-8.169,11.74-12.144,5.416-5.4,10.914-10.72,16.448-16,3.919-3.74,8.026-7.276,12.519-10.329,3.212-2.182,6.494-4.305,10.29-5.288,2.666-.69,5.421-1.243,8.162-1.391,4.828-.261,7.858,2.179,9.308,6.405.621,1.809,1.203,3.689.082,5.571-.098.164.078.491.197,1.103.74-.67,1.289-1.149,1.818-1.649,2.983-2.821,5.894-5.721,8.958-8.451,3.478-3.099,7.627-5.103,12.081-6.308,1.675-.453,3.667-.406,5.363.015,4.368,1.085,6.152,3.533,6.631,8.161.231,2.23.307,4.533-.752,6.67-.095.191.057.503.156,1.19.776-.794,1.361-1.325,1.869-1.922,2.873-3.381,5.567-6.932,8.644-10.115,1.953-2.02,4.274-3.884,6.775-5.127,3.235-1.608,6.696-2.585,10.531-1.21,2.779.996,5.012,2.392,6.244,5.006,1.055,2.239,1.585,4.716,1.2,7.197-.424,2.736-1.031,5.455-1.744,8.133-.822,3.085-1.934,6.093-2.767,9.176-1.29,4.773-2.937,9.487-2.613,14.563.126,1.967.551,2.589,2.561,2.76,4.3.366,8.474-.036,12.252-2.369,1.893-1.169,3.826-2.293,5.613-3.609,3.137-2.311,6.164-4.77,9.264-7.131.705-.537,1.25-1.086,1.223-2.033-.123-4.421,1.458-8.487,2.65-12.633,1.486-5.167,3.698-10,6.5-14.597,4.636-7.608,10.566-13.844,18.883-17.355,3.962-1.673,8.175-2.557,12.399-.444,1.292.646,2.689,1.083,3.979,1.731,4.695,2.357,7.152,6.351,8.173,11.356.465,2.279-.265,4.43-1.018,6.478-4.07,11.071-11.448,19.818-19.894,27.782-.755.711-1.653,1.271-2.487,1.898-.755.568-1.513,1.131-2.618,1.957.9.089,1.441.285,1.901.166,4.433-1.143,8.737-2.648,13.016-4.294,6.74-2.593,12.75-6.471,18.844-10.189,9.668-5.897,19.213-11.994,28.811-18.004,4.321-2.705,8.206-5.979,12.102-9.238.907-.759,1.828-1.503,2.766-2.224,2.256-1.732,4.217-1.616,6.24.391,2.711,2.69,4.469,5.998,6.044,9.418.028.06.008.142.032.205,1.354,3.64,1.263,4.097-1.84,6.635-6.834,5.593-13.957,10.787-21.54,15.334-9.663,5.796-19.339,11.572-28.982,17.4-6.015,3.635-12.346,6.598-19.035,8.715-3.32,1.051-6.712,1.966-10.246,2.188-1.92.121-3.824.513-5.735.782-.278.008-.556.016-.833.024-.418,0-.836-.002-1.254-.003-.278-.008-.556-.017-.834-.025-3.28-.571-6.757-.644-9.788-1.842-3.684-1.455-7.411-3.302-9.567-7.263-.695.576-1.267,1.044-1.832,1.52-2.129,1.793-4.217,3.638-6.39,5.375-6.17,4.933-13.167,8.04-20.968,9.354-4.393.74-8.795,1.431-13.256.8-2.005-.284-4.009-.511-5.908-1.476-4.471-2.271-6.289-6.115-6.737-10.784-.35-3.651.525-7.211,1.036-10.806.446-3.134.466-6.335.555-9.51.028-1.015-.705-1.597-1.788-1.633-1.121-.038-2.169.054-3.207.627-3.123,1.724-5.177,4.421-6.768,7.464-2.186,4.18-4.231,8.425-5.855,12.879-1.552,4.26-3.452,8.393-5.165,12.595-1.004,2.463-1.949,4.951-2.907,7.433-.438,1.135-1.222,1.788-2.436,2.017-4.682.88-9.396,1.588-14.16,1.148-4.228-.39-5.372-2.757-4.093-6.227.885-2.402,2.095-4.689,3.226-6.994,3.289-6.704,6.634-13.38,9.903-20.094.77-1.58,1.333-3.261,1.981-4.9.369-.934.767-1.861,1.06-2.82.323-1.055.674-2.131.77-3.219.123-1.406-.368-1.815-1.824-1.924-2.447-.183-4.705.336-6.709,1.798-.45.328-.917.636-1.339.996-6.652,5.663-12.722,11.865-17.544,19.187-1.18,1.792-2.202,3.703-3.135,5.638-2.159,4.483-4.207,9.019-6.329,13.52-.442.938-.946,1.861-1.539,2.709-.789,1.127-1.933,1.899-3.303,1.983-3.375.206-6.759.249-10.136.41-1.678.08-3.247-.242-4.84-.76-1.921-.625-2.839-2.093-3.557-3.749-.194-.447-.104-1.137.097-1.614.814-1.935,1.742-3.821,2.59-5.743,1.332-3.018,2.563-6.084,3.969-9.067,1.356-2.878,2.89-5.673,4.32-8.517.323-.643.536-1.341.799-2.013l-.426-.329c-.538.458-1.088.903-1.613,1.375-5.369,4.833-10.69,9.721-16.113,14.493-6.049,5.323-12.194,10.537-18.291,15.806-4.695,4.057-10.197,6.632-15.889,8.961-2.883,1.18-5.749,1.816-8.833,1.81-2.405-.005-4.471-.855-6.326-2.262-1.848-1.402-3.244-3.176-4.175-5.334-1.867-4.331-2.185-8.78-1.227-13.362.061-.293-.035-.62-.095-1.431-1.044.966-1.795,1.637-2.519,2.335-5.873,5.661-12.12,10.869-18.86,15.476-4.52,3.09-9.282,5.752-14.469,7.548-4.047,1.401-8.018,3.031-12.211,4.011-3.523.823-7.01.697-10.499-.082-1.392-.311-2.766-.609-4.138-1.12-3.581-1.336-5.798-4.087-7.7-7.059-1.439-2.249-2.13-4.928-2.209-7.646-.086-2.977-.077-5.962.029-8.938.032-.893.557-1.76.798-2.655.221-.824.363-1.668.54-2.504l-.39-.181c-.307.223-.653.409-.915.676-2.778,2.824-5.49,5.716-8.323,8.484-5.168,5.048-10.519,9.912-15.579,15.063-4.491,4.572-9.758,7.917-15.735,9.878-7.183,2.357-13.444.073-17.597-6.859-1.38-2.304-1.989-4.895-2.496-7.462-.313-1.588-.017-3.3.039-4.956.098-2.916.815-5.723,1.488-8.544.729-3.053,1.817-5.966,3.078-8.831.406-.923.579-1.945.945-2.889.871-2.243,1.795-4.467,2.914-7.235-.945.541-1.538.781-2.011,1.168-2.907,2.38-5.851,4.721-8.661,7.211-4.99,4.421-9.922,8.909-14.807,13.445-.937.871-1.745,2.006-2.267,3.173-1.749,3.912-3.372,7.881-4.982,11.853-.955,2.356-1.76,4.772-2.699,7.134-.511,1.285-1.422,2.303-2.854,2.495-3.14.422-6.289.804-9.445,1.066-2.833.235-5.667.09-8.445-.608-1.618-.407-2.731-1.215-3.169-3.013-.485-1.993-.261-3.772.573-5.6.788-1.728,1.341-3.562,2.115-5.297,1.262-2.828,2.546-5.651,3.955-8.408,2.592-5.07,5.287-10.087,7.927-15.133.316-.604.551-1.25.83-1.893-.957-.716-1.553.017-2.133.361-3.045,1.804-6.252,3.229-9.618,4.312-3.382,1.088-6.804,2.016-10.385,2.04-1.216.008-1.925.495-2.455,1.526-3.515,6.838-8.118,12.955-12.852,18.963-2.139,2.714-4.537,5.241-6.973,7.699-3.526,3.559-7.178,6.994-10.803,10.454-2.664,2.542-5.502,4.873-9.099,5.965-1.566.476-3.226.645-4.843.954-.417-.006-.833-.012-1.25-.018-4.872.019-8.657-1.971-10.758-6.399-.857-1.805-1.105-3.94-1.394-5.959-.212-1.482-.042-3.02-.042-4.676-1.02.149-1.313.876-1.727,1.461-2.936,4.153-6.053,8.157-9.824,11.603-1.438,1.314-2.949,2.546-4.409,3.837-2.231,1.974-4.932,2.878-7.773,3.512-4.958,1.107-9.934.66-14.565-.987-3.428-1.219-6.012-4.099-6.76-7.908-.464-2.362-.467-4.828-.527-7.252-.12-4.853,1.492-9.32,3.239-13.751.942-2.39,1.778-4.822,2.728-7.209.371-.933.923-1.794,1.643-3.164-1.114.279-1.75.378-2.342.597-3.555,1.316-7.095,2.674-11.117,3.072-.567,1.386-1.119,2.842-1.753,4.262-2.306,5.165-5.27,9.946-8.695,14.433-5.646,7.398-12.239,13.861-19.644,19.499-4.515,3.438-9.183,6.618-14.697,8.27-3.571,1.07-7.219,1.536-10.778.103-1.699-.684-3.382-1.629-4.774-2.807-3.227-2.731-5.654-6.092-7.059-10.138-1.835-5.284-1.934-10.775-1.38-16.19.437-4.262,1.942-8.404,4.274-12.073,2.418-3.806,4.821-7.683,7.733-11.101,5.501-6.456,11.292-12.671,17.095-18.862,4.953-5.284,10.942-9.228,17.606-11.967,3.377-1.388,6.963-1.894,10.842-1.288,3.512.549,6.679,1.444,9.582,3.396,1.766,1.188,3.356,2.622,3.943,4.706.552,1.96.971,4.014,1.038,6.04.098,2.98-.169,5.971-.281,8.958.13.132.261.265.391.397ZM276.235,190.249c1.61-.728,2.906-1.094,3.942-1.826,2.593-1.833,5.198-3.687,7.568-5.792,6.786-6.029,11.975-13.441,17.663-20.566-2.68-2.168-5.011-4.524-6.858-7.338-.186-.283-.974-.352-1.41-.239-.425.11-.765.57-1.127.894-3.541,3.175-6.441,6.899-9.201,10.74-3.915,5.447-7.973,10.815-10.377,17.165-.792,2.092-.623,4.256-.199,6.962ZM862.35,91.099c-1.328.272-2.58.255-3.541.775-3.447,1.86-6.568,4.167-8.812,7.47-3.537,5.206-6.098,10.872-7.962,16.864-.043.139.123.344.231.616,2.789-1.286,5.128-3.083,7.356-5.064,5.023-4.465,8.332-10.206,11.821-15.806.816-1.31,1.052-2.841.907-4.853Z"/>
  <path d="M95.715,236.217c2.241-1.051,4.511-2.043,6.717-3.163,10.608-5.387,20.888-11.349,31.003-17.605,6.89-4.261,13.885-8.353,20.735-12.676,21.883-13.811,43.496-28.028,64.207-43.558,5.454-4.09,10.834-8.305,15.973-12.777,5.079-4.42,9.806-9.242,14.694-13.88,4.484-4.254,9.132-8.349,13.43-12.784,5.496-5.671,10.066-12.027,12.775-19.557.341-.948.975-1.814,1.187-2.78.731-3.328,1.596-6.66,1.893-10.036.187-2.124-.401-4.363-.898-6.49-1.914-8.199-7.484-13.528-14.325-17.796-1.58-.986-3.179-1.968-4.862-2.754-3.218-1.504-6.439-3.043-9.776-4.241-3.69-1.324-7.483-2.391-11.284-3.366-3.179-.815-6.416-1.442-9.658-1.96-3.362-.537-6.77-.776-10.141-1.263-10.323-1.492-20.674-1.169-31.008-.361-5.747.45-11.388,1.775-17.035,2.941-3.904.806-7.818,1.569-11.703,2.455-6.819,1.555-13.636,3.121-20.423,4.806-11.353,2.819-22.534,6.245-33.647,9.877-5.436,1.777-10.787,3.814-16.16,5.777-4.51,1.647-9.023,3.294-13.486,5.062-2.809,1.113-5.516,2.477-8.291,3.68-9.873,4.281-19.541,8.981-29.062,13.993-7.981,4.201-15.769,8.725-23.445,13.457-1.68,1.036-3.597,1.709-5.452,2.431-.686.267-1.504.2-2.262.275-1.304.129-2.149-.503-2.563-1.679-.878-2.497-1.924-4.946-2.276-7.602-.134-1.012-.307-2.02-.454-3.03-.488-3.357.604-6.502,1.774-9.484.874-2.228,2.878-3.852,5.063-5.056,5.908-3.255,11.725-6.687,17.73-9.753,8.407-4.291,16.921-8.376,25.448-12.427,4.484-2.13,9.082-4.023,13.647-5.982,4.069-1.747,8.123-3.54,12.256-5.125,4.69-1.799,9.47-3.362,14.193-5.076,9.431-3.422,19.017-6.356,28.649-9.145,5.461-1.581,10.922-3.183,16.443-4.527,5.957-1.45,11.986-2.606,17.982-3.897,2.394-.515,4.767-1.15,7.18-1.547,2.506-.413,5.056-.555,7.575-.901,8.839-1.216,17.747-1.04,26.628-1.209,5.772-.11,11.578.046,17.322.584,3.541.332,7.123.351,10.638,1.003,2.472.459,4.953.877,7.44,1.241,2.223.325,4.476.46,6.685.849,1.768.311,3.491.88,5.234,1.333.851.221,1.717.396,2.551.667,3.606,1.172,7.249,2.252,10.793,3.591,4.326,1.634,8.592,3.397,12.787,5.394,3.833,1.825,7.585,3.705,11.141,6.003,6.062,3.917,10.923,8.974,14.554,15.206,1.289,2.213,2.767,4.345,3.793,6.675.878,1.994,1.362,4.192,1.784,6.345.442,2.253.651,4.557.876,6.847.476,4.844.287,9.654-.751,14.43-2.666,12.273-8.725,22.811-16.818,32.216-5.672,6.591-11.672,12.902-18.254,18.625-.42.365-.837.74-1.211,1.15-7.498,8.227-16.291,14.952-25.165,21.574-14.167,10.573-28.721,20.602-43.402,30.446-9.823,6.587-19.735,13.042-29.565,19.62-12.197,8.161-24.884,15.492-37.679,22.666-6.826,3.827-13.375,8.146-20.069,12.21-5.828,3.538-11.907,6.582-18.226,9.154-1.972.803-3.833,1.89-5.827,2.626-7.088,2.615-13.094-1.051-16.089-7.156-.349-.712-.399-1.616-.419-2.435-.12-4.923.803-9.681,2.452-14.301,2.455-6.874,5.78-13.326,9.553-19.564,14.176-23.43,28.314-46.884,42.509-70.303,14.982-24.717,30.012-49.406,45.025-74.105,1.835-3.019,3.733-6.002,5.534-9.042.93-1.569,2.103-2.4,4.027-2.328,1.568.059,3.148-.282,4.726-.382,2.903-.184,5.814-.502,8.712-.418,2.101.061,4.241.493,6.263,1.097,2.819.841,4.187,3.264,2.186,6.374-5.635,8.756-11.238,17.533-16.849,26.305-3.479,5.44-6.921,10.904-10.429,16.326-10.681,16.511-21.381,33.009-32.082,49.506-5.139,7.923-10.314,15.824-15.445,23.753-7.32,11.311-14.674,22.599-21.882,33.981-2.145,3.387-3.848,7.052-5.753,10.59.118.128.236.257.354.385Z"/>
  <path d="M680.836,88.4c-3.679-.106-6.34-2.209-7.932-5.295-.859-1.666-.82-3.861-.52-5.921.306-2.097,1.164-3.958,2.132-5.731,2.199-4.025,5.44-6.982,9.922-8.313,2.127-.632,4.306-.884,6.477.09,1.108.497,2.324.751,3.482,1.139,2.875.965,5.13,4.972,4.887,8.095-.397,5.095-3.447,8.322-6.838,11.453-1.011.933-2.224,1.658-3.387,2.414-2.466,1.603-5.27,1.922-8.223,2.068Z"/>
  <path d="M389.296,198.91c.417.006.833.012,1.25.018-.417-.006-.833-.012-1.25-.018Z"/>
  <path d="M851.214,146.328c.278.008.556.017.834.025-.278-.008-.556-.017-.834-.025Z"/>
  <path d="M853.302,146.356c.278-.008.556-.016.833-.024-.278.008-.556.016-.833.024Z"/>
  <path d="M329.113,151.326c-.13-.132-.261-.265-.391-.397.13.132.261.265.391.397Z"/>
</svg>