<?xml version="1.0" encoding="UTF-8"?>
<svg id="a" data-name="Layer_1" xmlns="http://www.w3.org/2000/svg" viewBox="0 0 1088.468 300">
  <path d="M209.723,237.638c-6.289-.623-12.544-2.038-18.631-4.31-4.091-1.527-8.053-3.4-11.833-5.585-15.487-8.951-27.457-23.403-33.758-40.109-7.109-18.847-5.694-37.899.755-56.723,1.823-5.322,3.986-10.525,6.379-15.615,3.877-8.246,8.352-16.195,13.096-23.969,2.375-3.892,4.822-7.738,7.296-11.568,3.264-5.052,6.685-9.964,10.224-14.843-2.512,3.463-4.399,8.425-6.196,12.293-2.151,4.63-3.472,9.886-5.215,14.694-3.552,9.796-7.068,19.656-9.161,29.887-3.181,15.548-2.771,32.577,5.345,46.215,6.755,11.352,18.563,19.421,31.473,22.22,8.646,1.874,17.893,1.45,26.061-1.948,8.007-3.33,14.708-9.391,19.603-16.549,4.267-6.239,7.288-13.552,7.301-21.11.021-12.091-7.505-22.9-15.996-31.509-8.961-9.086-19.652-16.913-26.305-28.011-5.161-8.611-7.957-18.646-7.89-28.691.045-6.844,2.143-13.197,4.218-19.608,2.979-9.202,5.018-18.044,11.123-25.793-2.286,9.987-3.142,20.548-.79,30.609,2.143,9.166,7.773,17.241,14.698,23.476,3.663,3.298,7.702,6.146,11.731,8.985,1.896,1.336,5.407,4.905,7.641,5.028.128-.528.085-1.027.1-1.574.044-1.68-.021-3.149.447-4.805,1.58-5.591,4.862-10.56,9.694-13.859,5.365-3.663,11.015-4.055,17.279-4.052.34,0,.662-.033.885.289.114.165.274.252.474.26,10.105.39,16.883,10.169,18.394,19.376,1.695,10.33-4.232,21.13-13.94,25.173-2.651,1.104-5.69,2.642-3.85,5.898,4.073,7.205,8.57,13.78,11.372,21.662,8.456,23.786,4.857,51.113-9.781,71.721-5.621,7.914-12.764,14.705-20.931,19.951-7.443,4.781-15.675,8.302-24.256,10.443-8.819,2.2-18.005,2.948-27.056,2.051ZM279.152,200.478c2.394-3.243,4.461-6.655,6.092-10.33,2.326-5.241,4.049-10.662,4.941-16.32.772-4.891,1.07-9.81.817-14.781-.279-5.472-.886-10.886-1.997-16.247-1.739-8.392-4.79-16.259-9.524-23.435-3.863-5.856-8.435-11.079-13.766-15.68-4.437-3.83-9.082-7.373-13.837-10.784-6.209-4.454-12.592-8.674-18.496-13.541-3.64-3.001-7.249-6.024-10.313-9.656-3.523-4.176-6.517-8.656-8.661-13.69-1.54-3.616-2.678-7.34-3.18-11.248-.074-.574-.113-1.2-.626-1.604-.473.254-.496.662-.588,1.009-.326,1.229-.65,2.459-.925,3.7-1.417,6.405-.529,12.453,2.865,18.101,2.51,4.177,5.403,8.061,8.809,11.562,4.692,4.823,10.004,8.898,15.437,12.828,6.727,4.867,13.71,9.381,20.197,14.575,4.382,3.509,8.679,7.095,12.374,11.375,5.382,6.235,9.779,13.044,12.823,20.701,2.648,6.659,4.138,13.591,4.91,20.7.715,6.583.836,13.152-.026,19.733-.839,6.4-2.56,12.54-5.216,18.421-.696,1.54-1.406,3.073-2.11,4.61ZM159.478,113.517c-.458,0-.464.361-.579.588-1.538,3.026-2.964,6.104-4.299,9.225-.262.612-.441,1.242-.569,1.89-1.421,7.225-2.365,14.508-2.407,21.879-.03,5.194.376,10.357,1.736,15.401,2.588,9.6,7.392,17.888,14.668,24.724,3.95,3.711,8.361,6.762,13.22,9.14,7.128,3.488,14.638,5.454,22.625,5.537,4.792.05,9.533-.247,14.162-1.534,9.586-2.666,17.39-8.043,23.689-15.67.106-.129.284-.255.124-.553-.183.139-.371.257-.53.406-2.384,2.238-5.028,4.116-7.838,5.786-6.675,3.966-13.948,5.951-21.639,6.429-4.734.295-9.452-.21-14.063-1.267-12.033-2.756-22.081-8.845-30.007-18.316-7.192-8.594-11.087-18.56-11.859-29.689-.454-6.546-.017-13.095.935-19.586.635-4.332,1.433-8.642,2.443-12.909.112-.474.351-.963.189-1.482ZM283.306,100.453c5.247-2.472,9.805-8.491,9.722-16.268-.101-9.518-6.893-15.592-13.557-17.465-5.575-1.567-13.53-.047-15.301,2.885,8.358-2.058,15.527.006,20.561,6.981,5.803,8.042,4.615,16.131-1.426,23.867Z"/>
  <path d="M38.37,143.107h55.401v-56.968h38.37v147.606h-38.37v-60.883h-55.401v60.883H0V86.14h38.37v56.968Z"/>
  <path d="M372.717,118.729v114.853h-38.284v-114.853h-31.448v-32.425h101.18v32.425h-31.448Z"/>
  <path d="M452.265,86.466l25.337,94.916,31.184-94.916h30.404l31.184,94.916,25.337-94.916h39.954l-43.852,146.954h-38.98l-28.845-85.171-28.845,85.171h-38.98l-43.852-146.954h39.954Z"/>
  <path d="M633.931,159.943c0-10.892,2.009-21.036,6.029-30.439,4.018-9.4,9.594-17.602,16.726-24.604,7.13-7.002,15.657-12.478,25.576-16.435,9.919-3.954,20.841-5.932,32.772-5.932,11.797,0,22.689,1.979,32.675,5.932,9.983,3.957,18.574,9.433,25.771,16.435,7.196,7.002,12.803,15.204,16.824,24.604,4.017,9.403,6.029,19.547,6.029,30.439s-2.012,21.039-6.029,30.439c-4.021,9.403-9.628,17.602-16.824,24.604-7.196,7.002-15.788,12.481-25.771,16.435-9.986,3.954-20.878,5.932-32.675,5.932-11.931,0-22.853-1.978-32.772-5.932-9.919-3.954-18.447-9.433-25.576-16.435-7.132-7.002-12.709-15.201-16.726-24.604-4.021-9.4-6.029-19.547-6.029-30.439ZM673.803,159.943c0,5.835,1.1,11.217,3.306,16.143,2.203,4.929,5.185,9.208,8.947,12.837,3.759,3.632,8.135,6.452,13.128,8.461,4.99,2.012,10.275,3.015,15.851,3.015s10.858-1.003,15.851-3.015c4.99-2.009,9.4-4.829,13.226-8.461,3.823-3.628,6.838-7.907,9.044-12.837,2.203-4.926,3.306-10.308,3.306-16.143s-1.103-11.214-3.306-16.143c-2.206-4.926-5.221-9.205-9.044-12.837-3.826-3.629-8.236-6.449-13.226-8.461-4.993-2.009-10.278-3.015-15.851-3.015s-10.861,1.006-15.851,3.015c-4.993,2.012-9.369,4.832-13.128,8.461-3.762,3.632-6.744,7.91-8.947,12.837-2.206,4.929-3.306,10.308-3.306,16.143Z"/>
  <path d="M932.11,233.143h-47.376l-36.308-56.307v56.307h-38.056V86.744h59.22c8.155,0,15.272,1.198,21.358,3.592,6.083,2.397,11.098,5.664,15.048,9.805,3.947,4.144,6.923,8.931,8.931,14.368,2.005,5.437,3.01,11.261,3.01,17.475,0,11.134-2.688,20.163-8.058,27.086-5.373,6.926-13.3,11.619-23.785,14.077l46.017,59.996ZM848.426,152.177h7.184c7.506,0,13.267-1.553,17.281-4.66,4.011-3.107,6.019-7.572,6.019-13.397s-2.008-10.291-6.019-13.397c-4.014-3.107-9.775-4.66-17.281-4.66h-7.184v36.114Z"/>
  <path d="M990.406,155.127l-45.274-67.815h46.623l19.651,37.568,24.275-37.568h46.623l-47.971,67.815,54.136,77.448h-46.045l-29.091-47.393-34.1,47.393h-45.659l56.833-77.448Z"/>
</svg>