<?xml version="1.0" encoding="UTF-8"?>
<svg id="a" data-name="Layer_1" xmlns="http://www.w3.org/2000/svg" viewBox="0 0 1179.43 300">
  <g id="b" data-name="U3LOPh.tif">
    <g>
      <path d="M558.752,259.482c1.465-.291,2.931-.581,4.396-.872-6.486-.402-12.83-1.399-18.931-3.654-4.929-1.822-9.634-4.045-13.518-7.68-9.453-8.848-8.603-21.15,1.972-28.594,4.685-3.297,9.941-5.406,15.317-7.274.812-.282,1.78-.337,2.386-1.177-.645-.838-1.637-.728-2.472-.939-7.237-1.828-14.033-4.52-18.981-10.387-4.804-5.696-6.078-12.172-3.474-19.225,2.74-7.423,7.707-13.258,13.675-18.295,2.421-2.044,5.031-3.872,7.609-5.725,1.399-1.005,1.718-1.541-.165-2.493-6.648-3.361-12.408-7.872-16.601-14.079-8.948-13.248-7.434-29.964,3.778-41.76,8.516-8.959,19.277-13.574,31.317-15.578,2.164-.36,4.343-.781,6.525-.844,1.783-.052,2.24-.832,2.548-2.402,2.018-10.293,6.931-18.959,15.473-25.222,6.812-4.995,14.307-6.387,22.212-2.427,6.747,3.38,9.629,11.411,6.762,18.561-2.895,7.218-10.718,11.261-17.877,9.275-3.599-.998-6.556-3.046-9.324-5.437-1.839-1.588-3.798-3.001-6.104-3.857-3.341-1.24-5.245-.527-7.022,2.518-1.273,2.181-1.92,4.563-2.513,6.982-.363,1.479.035,1.945,1.626,1.965,9.071.118,17.792,1.902,25.73,6.389,13.315,7.527,21.701,18.389,21.311,34.213-.335,13.58-7.481,23.578-18.913,30.313-16.687,9.831-34.391,10.57-52.507,4.29-1.846-.64-2.872-.289-4.129,1.006-1.917,1.975-3.604,4.064-4.701,6.591-2.291,5.278-.58,9.765,4.703,12.102,4.22,1.866,8.758,2.5,13.295,2.639,9.698.298,19.398.315,29.103-.156,9.595-.465,19.097.318,28.143,3.892,11.024,4.355,16.857,12.726,18.021,24.237,1.813,17.919-6.514,31.012-20.592,41.107-7.41,5.313-15.704,8.733-24.688,10.385-2.263.416-4.61.38-7.361.584,1.598.409,2.8.717,4.002,1.025h-30.031ZM584.49,255.025c2.68.215,5.318-.146,7.934-.541,7.258-1.097,14.168-3.071,19.941-7.937,9.809-8.268,11.018-27.036-6.331-32.232-9.359-2.803-18.925-3.117-28.564-2.558-6.374.37-12.756.313-19.048-.548-3.535-.484-6.012.425-8.208,2.938-1.1,1.259-2.132,2.563-2.783,4.102-3.956,9.357-2.836,19.892,7.237,27.591,8.777,6.708,19.04,8.846,29.822,9.186ZM593.309,120.098c.087-5.57.148-10.84-.873-16.061-1.089-5.572-2.336-11.061-6.025-15.64-4.819-5.982-14.687-7.295-20.937-2.776-4.714,3.409-6.814,8.396-8.054,13.747-2.667,11.51-2.8,23.143-1.171,34.815.763,5.467,1.952,10.789,4.731,15.679,2.951,5.192,7.272,7.759,13.302,7.904,6.356.153,10.617-2.937,13.69-8.062.922-1.538,1.63-3.234,2.217-4.933,2.797-8.097,3.421-16.479,3.121-24.671Z"/>
      <path d="M0,126.488c2.339,1.811,2.664,4.663,3.506,7.154,5.442,16.091,13.446,30.744,24.31,43.856,7.217,8.711,15.482,16.218,25.833,21.01,11.34,5.25,23.002,5.931,34.422.273,9.749-4.83,13.655-13.467,14.22-23.831.628-11.516-4.364-20.35-13.475-27.131-7.954-5.921-16.887-10-26.017-13.713-10.083-4.102-20.365-7.757-29.822-13.257-6.642-3.863-12.927-8.152-17.844-14.164-8.314-10.164-10.756-21.84-9.053-34.586,3.747-28.042,27.926-45.93,52.336-48.828,10.024-1.19,19.388,1.105,28.684,4.338,5.488,1.908,10.837,4.309,16.704,4.967,4.775.536,6.169-.491,7.358-5.201.373-1.478.437-3.089,1.426-4.612.996,1.659.875,3.296,1.007,4.823,1.608,18.617,3.149,37.239,4.714,55.86.094,1.122.276,2.236.376,3.357.041.463-.089,1.014-.545,1.149-.58.171-1.028-.267-1.215-.781-.357-.987-.642-2-.93-3.011-4.747-16.641-11.919-32.046-23.628-45.055-5.268-5.853-11.349-10.748-19.155-12.845-16.717-4.491-34.206,3.358-37.449,21.917-2.062,11.801,1.987,21.651,11.082,29.451,8.232,7.06,17.981,11.332,28.062,14.968,10.682,3.853,21.269,7.927,31.153,13.572,8.295,4.737,15.837,10.352,20.967,18.633,3.945,6.369,5.888,13.256,6.068,20.763.211,8.788-.829,17.274-4.591,25.321-5.857,12.528-15.507,21.236-27.892,27.04-10.065,4.717-20.66,7.367-31.889,6.734-9.321-.526-18.18-3.024-26.783-6.517-5.884-2.389-11.752-4.82-17.672-7.118-2.838-1.101-5.82-1.612-8.908-1.324-2.629.245-4.301,1.621-5.243,4.025-1.044,2.665-1.046,5.439-1.068,8.235-.006.752.575,2.121-.693,2.19-1.193.065-1.327-1.277-1.416-2.238-.651-6.977-1.256-13.959-1.897-20.937-.993-10.804-2.06-21.601-2.972-32.412-.291-3.447-.178-6.927-.276-10.391-.038-1.336.142-2.701-.445-4.193-1.002,3.137-.337,6.318-1.353,9.247v-16.737Z"/>
      <path d="M347.193,204.02c1.773-1.279,3.792-1.091,5.684-1.479,3.456-.708,5.678-2.545,6.792-5.888,1.21-3.633,1.541-7.391,1.566-11.145.119-18.014.508-36.03-.246-54.043-.252-6.018.285-12.063-.617-18.061-.553-3.676-1.219-7.298-4.064-10.07-.943-.918-1.98-1.611-3.266-1.954-3.299-.882-3.687-.614-4.554,2.624-1.985,7.409-6.146,12.725-14.202,14.067-4.42.736-8.202-.937-11.602-3.517-2.043-1.551-3.891-3.357-5.821-5.055-1.308-1.151-2.665-2.236-4.185-3.102-3.865-2.2-7.447-1.288-9.652,2.588-1.346,2.366-2.292,4.922-2.705,7.624-.592,3.877-1.02,7.778-1.019,11.703.007,17.641.036,35.282.096,52.923.01,2.788.355,5.56.835,8.314,1.582,9.071,5.667,12.772,14.865,13.464.989.074,2.096-.173,3.294.987h-64.939c.96-.873,1.733-.885,2.471-.948,8.296-.708,10.614-3.084,11.565-12.36.684-6.672.692-13.394.647-20.108-.097-14.399,0-28.799-.182-43.196-.071-5.56-.12-11.159-1.312-16.647-.417-1.92-.985-3.784-2.054-5.466-1.741-2.741-4.067-4.37-7.489-4.24-2.727.104-5.461.014-8.121.778-.543.156-1.294.574-1.523-.195-.212-.709.332-1.126,1.137-1.354,11.001-3.109,21.713-7.046,32.288-11.35,5.112-2.08,10.158-4.319,15.255-6.435,2.618-1.087,3.168-.677,3.166,2.218-.005,8.142-.028,16.283-.036,24.425,0,.575-.211,1.197.283,1.699.558.101.541-.345.69-.665,5.062-10.85,12.1-20.039,22.947-25.7,8.239-4.3,17.317-1.827,22.172,5.635,1.241,1.907,2.267,3.956,2.714,6.177.331,1.647.912,1.83,2.453,1.337,12.263-3.93,24.18-8.741,35.919-13.985,5.894-2.633,6.121-2.589,6.118,3.72-.013,32.117-.024,64.234-.023,96.351,0,3.693.113,7.383.613,11.054.701,5.145,2.575,7.303,7.616,8.082,2.453.379,5.003.394,7.467-.115,4.968-1.026,6.733-3.257,6.738-8.327.007-7.464.001-14.928.001-22.391,0-16.737.004-33.474-.003-50.211-.001-3.931-.388-7.828-1.283-11.658-1.811-7.744-5.956-10.317-13.83-8.732-1.118.225-2.217.99-3.478.424.122-1.107.926-1.3,1.722-1.587,15.084-5.434,30.127-10.971,44.739-17.593,2.906-1.317,3.39-.871,3.371,2.293-.045,7.235.001,14.471.047,21.706.003.537-.324,1.388.448,1.573.768.183.791-.706,1.1-1.18,7.602-11.666,17.431-20.745,31.058-24.767,8.377-2.472,20.594-1.146,26.68,6.829,3.372,4.418,4.735,9.526,5.422,14.89.769,6.002.627,12.04.627,18.068,0,21.034-.053,42.068-.043,63.102.002,3.543.215,7.104,1.265,10.513,1.094,3.551,3.307,5.954,7.231,6.656,2.225.398,4.576.37,6.642,1.701h-60.292c1.462-1.338,3.253-1.147,4.89-1.443,4.38-.792,6.891-2.922,7.877-7.298,1.387-6.155,1.232-12.426,1.227-18.682-.012-17.641-.027-35.282.005-52.922.01-5.511-.064-11.009-1.28-16.413-.856-3.803-2.568-7.149-6.136-9.101-4.435-2.427-9.17-2.51-13.467-.043-8.268,4.747-12.67,12.022-13.131,21.617-.235,4.896-.338,9.786-.323,14.688.041,13.721-.124,27.443.016,41.162.057,5.565.421,11.159,1.128,16.679.972,7.588,3.951,10.109,11.592,10.735.975.08,2.108-.219,3.113,1.025h-114.719Z"/>
      <path d="M666.539,25.797c.649-.949,1.651-.638,2.493-.638,16.301-.002,32.603.036,48.904.047,6.368.004,12.743-.23,19.104-.025,14.151.456,28.117,2.078,41.116,8.218,16.228,7.665,25.623,20.338,28.172,38.088,1.823,12.695.448,24.836-6.085,36.043-7.338,12.588-18.748,20.065-32.432,24.288-11.739,3.623-23.723,4.583-35.928,2.529-3.068-.516-6.075-1.228-9.109-1.86-.959-.2-1.941-.608-1.935,1.144.045,13.942-.046,27.885.059,41.826.036,4.816.447,9.636,1.196,14.408,1.373,8.757,6.133,12.835,15.335,13.218.859.036,1.832-.309,2.862.887h-68.613c.327-.946,1.067-.877,1.699-.923,8.249-.592,10.808-2.643,11.867-12.781.047-.449.055-.904.046-1.356-.283-14.021.852-28.011.759-42.038-.194-29.247.016-58.496.002-87.744-.003-6.104-.338-12.214-1.173-18.261-1.408-10.204-5.414-13.753-15.792-14.422-.869-.056-1.85.233-2.546-.651ZM720.986,78.583c-.024,0-.048,0-.073,0,0,12.737-.008,25.475.005,38.212.004,3.843.078,7.686.098,11.53.005.955.049,1.787,1.239,2.068,6.754,1.597,13.483,1.976,20.104-.542,11.963-4.549,18.763-13.797,22.967-25.297,4.294-11.746,4.292-23.943,3.392-36.167-.538-7.313-2.167-14.433-5.176-21.18-4.152-9.311-10.438-16.403-20.706-19.122-5.556-1.471-11.287-1-16.96-1.067-4.759-.056-4.858-.047-4.873,4.761-.049,15.601-.018,31.202-.018,46.803Z"/>
      <path d="M173.841,103.313c3.369-3.853,6.538-7.042,10.003-9.943,6.139-5.141,12.607-9.783,20.58-11.537,10.948-2.408,20.72.39,29.194,7.571,9.127,7.734,14.375,17.796,16.788,29.292,4.589,21.863,1.792,42.622-10.702,61.504-8.914,13.471-21.318,22.057-37.661,24.319-9.511,1.316-18.552.057-26.691-5.444-.412-.278-.82-.812-1.38-.592-.524.206-.307.771-.305,1.204.047,12.136.047,24.272.176,36.407.03,2.851.325,5.726.796,8.541,1.265,7.568,5.015,10.807,12.75,11.222,1.891.102,3.788.101,5.683.151.469.012.998.099,1.066.612.08.6-.524.689-.944.738-1.125.133-2.259.268-3.389.269-18.956.022-37.912.028-56.867.021-1.469,0-4.166-.134-4.011-.873.37-1.769,2.51-.758,3.875-.828,4.951-.253,7.696-2.407,8.835-7.173.956-4,.932-8.074.933-12.14.011-33.62.035-67.24-.02-100.86-.014-8.357-.031-16.731-1.492-25.008-.328-1.858-.921-3.646-1.914-5.279-1.779-2.928-4.213-4.637-7.827-4.447-2.346.123-4.694.113-7.024.502-.576.096-1.528.609-1.71-.362-.159-.846.843-.927,1.448-1.128,5.38-1.786,10.809-3.433,16.147-5.337,10.259-3.659,20.317-7.825,30.295-12.185,2.62-1.145,3.231-.748,3.239,2.07.016,5.502-.006,11.004-.004,16.506,0,.511.061,1.021.137,2.207ZM173.653,147.298c.041,0,.082,0,.123,0,0,9.121-.118,18.244.039,27.362.117,6.763,1.425,13.269,4.923,19.26,6.953,11.91,23.86,11.92,30.618-.496,1.482-2.722,2.739-5.536,3.641-8.498,2.879-9.454,3.836-19.191,4.084-28.999.359-14.176.353-28.342-3.213-42.23-1.472-5.732-3.405-11.271-7.353-15.851-6.363-7.382-14.674-8.092-21.972-1.684-7.553,6.632-10.842,15.229-10.883,25.13-.036,8.669-.007,17.337-.007,26.006Z"/>
      <path d="M976.624,191.303c-.796,2.84-2.786,4.615-4.897,6.137-8.638,6.225-18.25,8.706-28.79,6.569-8.39-1.702-13.26-7.284-14.687-16.3-.253-1.6-.411-3.216-.618-4.871-1.132.165-1.297,1.099-1.744,1.729-6.922,9.743-15.668,17.029-27.706,19.424-7.795,1.551-15.526.949-22.946-2.245-8.45-3.636-13.571-13.301-12.435-22.594,1.182-9.671,7.023-15.73,14.933-20.321,8.78-5.096,18.254-8.762,27.5-12.898,6.974-3.12,14.101-5.848,21.271-8.471.928-.339,1.327-.692,1.334-1.719.09-12.804.882-25.616-.507-38.401-.189-1.736-.646-3.4-1.351-4.992-2.038-4.595-6.03-6.737-11.03-5.942-10.536,1.674-15.117,6.31-16.723,17.152-.739,4.988-1.001,10.055-1.924,15.004-1.742,9.343-9.648,14.733-18.998,13.286-8.315-1.287-13.235-9.303-11.175-18.073,1.529-6.507,5.786-10.976,10.99-14.716,6.584-4.732,14.043-7.671,21.728-10.056,10.255-3.184,20.536-6.285,31.177-8.005,4.024-.65,7.993-.559,11.939.466,9.06,2.354,13.501,8.895,15.707,17.338,1.049,4.016,1.488,8.145,1.487,12.31-.007,23.594,0,47.188-.006,70.782,0,3.646.899,7.013,3.126,9.946,3.194,4.206,8.067,4.708,12.085,1.303.741-.628,1.507-1.229,2.261-1.842ZM927.832,156.362c0-4.891-.1-9.784.05-14.67.059-1.917-.393-2.262-2.1-1.515-7.058,3.086-14.123,6.142-20.714,10.179-10.384,6.36-14.955,15.603-13.148,27.519,1.743,11.493,10.969,15.006,21.696,12.941,7.309-1.407,12.717-8.205,13.707-15.973.782-6.134.917-12.303.509-18.48Z"/>
      <path d="M867.805,204.084h-64.245c.818-1.066,1.907-1.017,2.952-1.104,6.141-.511,9.33-3.431,10.246-9.486.247-1.633.394-3.293.432-4.944.784-33.686.552-67.378.589-101.069.013-11.832-.81-23.65-.647-35.489.043-3.157-.551-6.305-1.509-9.338-1.797-5.692-5.806-8.177-11.834-7.413-2.216.281-4.431.561-6.892.873.479-1.48,1.582-1.586,2.415-1.837,15.744-4.736,31.002-10.733,46.001-17.412,2.847-1.268,3.607-.74,3.635,2.425.029,3.166-.011,6.332-.011,9.498-.003,49.677-.003,99.355-.007,149.032,0,3.999.147,7.982.902,11.926,1.768,9.236,5.516,12.548,14.998,13.268.927.07,2.002-.24,2.976,1.07Z"/>
      <path d="M1071.167,158.314c.097,2.342-.472,4.373-.99,6.377-3.18,12.317-9.217,22.956-19.428,30.819-17.653,13.593-45.074,12.188-61.715-2.87-13.28-12.017-19.416-27.081-19.787-44.746-.271-12.901,1.979-25.26,8.33-36.572,9.86-17.562,25.032-27.835,45.091-30.227,12.288-1.465,24.055.891,34.313,8.309,9.089,6.573,13.839,15.425,13.176,26.755-.674,11.523-10.795,19.606-21.795,17.578-10.73-1.977-16.638-11.601-13.925-22.704.663-2.713,1.742-5.284,2.781-7.87,1.652-4.114,2.593-8.31,1.651-12.792-.791-3.763-3.138-5.994-6.726-6.832-6.951-1.624-13.024.162-18.187,5.075-5.669,5.395-8.866,12.204-10.792,19.56-4.553,17.386-4.334,34.656,2.965,51.318,4.888,11.158,13,19.375,25.237,22.283,11.123,2.643,21.638,1.49,29.772-7.746,3.516-3.992,6.107-8.594,8.288-13.429.347-.768.321-1.832,1.739-2.286Z"/>
      <path d="M1156.95,130.436c-15.843-.209-31.68,1.08-47.524.212-1.339-.073-2.149.188-2.09,1.823.388,10.903,2.309,21.437,7.901,30.99,5.838,9.973,14.078,16.946,25.834,18.877,12.827,2.107,23.394-1.475,30.581-12.827,1.897-2.995,3.696-6.041,4.97-9.369.238-.622.433-1.748,1.376-1.428.818.277.22,1.179.105,1.799-2.213,11.93-7.254,22.452-15.844,31.168-16.892,17.142-47.43,17.784-66.558.66-11.225-10.049-17.305-22.763-18.969-37.486-1.879-16.62.51-32.678,9.925-46.818,13.202-19.826,31.96-29.354,56.022-26.646,13.181,1.483,22.586,9.24,29.189,20.448,4.689,7.959,6.759,16.688,7.532,25.797.177,2.081-.332,2.912-2.658,2.856-6.594-.159-13.194-.056-19.791-.056ZM1125.208,128.858v-.018c5.23,0,10.459.046,15.688-.013,4.963-.057,8.187-2.646,9.03-7.509.854-4.922.271-9.92.314-14.882.045-5.188-1.195-10.129-3.424-14.833-4.057-8.559-12.212-10.692-20.377-6.832-4.13,1.952-7.319,5.088-9.785,8.886-6.575,10.124-8.897,21.445-9.324,33.283-.05,1.394.406,1.984,1.962,1.955,5.303-.096,10.609-.037,15.914-.037Z"/>
      <path d="M373.839,30.495c10.645.085,18.877,7.961,18.786,17.976-.093,10.276-8.41,18.129-19.031,17.968-10.213-.154-18.511-8.362-18.424-18.225.085-9.646,8.675-17.799,18.669-17.72Z"/>
    </g>
  </g>
</svg>