<?xml version="1.0" encoding="UTF-8"?>
<svg id="a" data-name="Layer_1" xmlns="http://www.w3.org/2000/svg" viewBox="0 0 984.426 300">
  <g id="b" data-name="_x23_000000ff">
    <path d="M351.945,29.093c10.436.072,20.045,4.419,28.452,10.274-12.07,26.566-26.673,52.018-42.498,76.518-3.88,7.328-11.909,11.819-13.956,20.171-6.897,21.464-14.405,42.929-24.392,63.118-8.622,1.706-18.177-1.491-24.751-7.436-7.957-9.484-11.226-21.842-12.645-33.876-1.832-15.95-2.281-32.08-1.221-48.084-2.137,5.963-2.928,13.885-10.166,15.717.539,15.447-9.951,27.895-16.184,41.223-7.921,18.77-15.573,37.953-18.034,58.322-6.448-.09-13.31-1.096-18.519-5.173-4.778-5.514-6.358-12.843-8.442-19.632,7.831-12.753,15.699-25.524,24.177-37.864-2.443-8.765,2.784-16.561,7.203-23.638,2.784-4.203,2.066-9.448,2.389-14.19,1.132-1.185,2.299-2.335,3.449-3.485,6.61-7.364,9.412-16.956,13.382-25.793,3.862-9.322,4.508-19.632,8.694-28.847,3.521-8.514,9.735-15.681,12.358-24.608,9.25.054,18.986.341,27.212,5.101,8.083,8.945-2.012,19.578-1.239,29.637-.251,28.092-1.599,56.418,2.604,84.313,14.064-22.883,19.812-49.79,34.074-72.566,8.837-15.986,15.304-33.427,26.296-48.084.665-3.7,1.006-7.454,1.76-11.118Z"/>
    <path d="M407.663,36.385c2.03-3.179,4.975-5.568,7.867-7.939,8.101,3,15.699,7.149,23.817,10.113-1.778,11.154-6.215,21.644-10.202,32.134-7.077,17.962-14.89,35.636-23.512,52.898-2.569,6.341-9.933,8.262-13.148,14.046-3.071,5.353-5.963,10.813-9.143,16.112,12.807-2.551,21.159-13.328,32.044-19.561,11.118-6.197,20.944-14.765,33.014-19.147,4.006-1.724,8.424-.916,12.537-.144-.808,2.694-1.06,5.658-2.497,8.137-9.502,7.346-20.656,12.142-30.571,18.878-10.795,7.275-20.243,16.291-30.212,24.608.09,3.503.485,7.023,1.599,10.364,4.922,15.806,10.256,31.685,11.855,48.264.521,5.532,2.191,10.867,2.982,16.381-4.724,3.682-10.184,1.85-14.585-1.275-10.526-15.789-14.639-34.72-24.284-50.994-4.401,2.245-10.274,3.556-12.106,8.783-4.437,11.478-7.885,23.314-10.4,35.385-8.37,2.191-16.291-1.581-23.315-5.766-.952-5.568-.826-11.226-.485-16.83,3.664-1.293,8.209-2.299,9.232-6.7,9.286-25.452,25.632-47.509,35.672-72.584,1.203-2.263,2.964-4.167,4.562-6.161-1.168-5.137-.826-10.436.826-15.411,5.676-18.86,13.849-36.84,21.59-54.91,2.874-6.035,2.533-13.328,6.861-18.68Z"/>
    <path d="M911.099,54.85c5.065-7.472,2.784-17.046,5.371-25.236,7.652-1.15,16.453,1.203,23.225,5.371,3.377,1.652,2.425,5.748,2.245,8.783-1.509,6.035-4.652,11.478-7.095,17.154,10.795,5.406,22.596,9.34,31.972,17.189,10.22,10.598,18.698,24.608,17.495,39.893-.018,10.041-5.137,18.932-8.927,27.949-1.491,3.592-3.79,6.754-6.412,9.61-7.436,7.311-15.735,13.669-24.446,19.363-17.621,10.759-33.589,23.907-50.419,35.816-11.585,8.568-24.68,14.675-37.019,22.021-5.514,3.125-9.43,8.262-14.549,11.909-7.041-2.964-15.07-6.412-17.477-14.405.719-4.85,3.503-9.017,5.532-13.382,4.706-9.196,6.556-19.812,13.04-28.074,3.269-4.706,9.196-5.981,14.28-7.849-2.569.198-5.101.162-7.634-.108,3.538-7.131,8.101-13.687,11.909-20.692,13.238-24.141,21.033-50.85,34.684-74.793,2.622-4.401,4.562-9.143,5.909-14.082-23.009-1.042-42.947,14.046-56.76,31.092-3.646,4.437-2.748,10.22-1.437,15.357,4.077,1.778,9.304,1.814,12.304,5.478-1.976,1.994-3.718,5.317-6.933,5.227-9.053-.072-16.83-6.448-20.71-14.316-6.628,14.603-14.387,28.631-22.83,42.228-4.688,6.538-4.778,15.016-8.765,21.914-3.521,8.137-8.945,15.214-12.951,23.081-4.85,13.112.198,27.985-6.412,40.756-1.239,6.861-9.771,2.964-13.633.467-3.952-5.299-4.149-12.358-4.832-18.68-1.653-15.681,8.478-29.565,7.688-45.174-.844.97-2.515,2.928-3.359,3.916-3.574,3.736-8.101,6.215-13.004,7.742-6.484,8.819-16.058,14.729-25.308,20.261-7.975,4.957-17.531.719-24.787-3.521-8.568-5.137-10.508-15.735-12.466-24.716-1.617-9.915-3.7-20.225-1.491-30.194.97-5.299,5.622-8.801,7.239-13.831,3.413-17.064,12.555-32.206,18.357-48.497,3.628-7.921,2.263-16.956,5.155-25.057,3.287-10.059,9.34-18.896,13.256-28.703,1.67-5.442,8.083-5.568,12.789-5.658,7.293-.287,14.549,3.341,18.95,9.107,3.52,5.891-1.024,12.591-3,18.303-15.411,31.793-39.103,60.262-46.072,95.665-2.03,10.274-7.903,20.351-4.67,31.056,11.621-2.227,21.393-9.232,31.99-14.064,5.371-2.209,8.927-6.951,12.43-11.352,5.209-6.574,11.765-11.927,16.902-18.573,7.023-9.232,17.225-16.04,22.039-26.871,9.412-24.5,19.578-48.695,30.338-72.62,9.538-.934,20.746-5.892,29.26.7,2.569,1.724,4.67,4.006,6.843,6.215-3.646,9.035-8.209,17.692-12.484,26.44,6.915-4.167,15.824-4.526,21.608-10.562,3.664-4.419,9.771-1.203,14.352-3.574,5.065-2.137,10.526-3.592,16.076-3.143,4.203-.018,9.502,1.383,12.645-2.335M928.486,72.111c-7.993,15.86-15.268,32.116-21.141,48.892-2.748,6.718-4.221,14.136-8.819,19.956-1.67,5.604-6.592,8.604-12.376,7.777,1.114,4.077,3.125,8.64.79,12.699-3.323,4.76-9.753,6.376-12.358,11.729-6.825,13.418-11.478,27.877-18.662,41.133,17.477-10.005,35.169-19.956,51.101-32.278,10.939-5.46,19.722-14.226,29.978-20.764,10.436-11.783,21.662-24.41,25.057-40.217,1.437-21.087-12.484-43.647-33.571-48.928Z"/>
    <path d="M78.296,39.385c13.471-6.089,28.847-11.46,43.665-7.346,12.25,2.928,20.387,14.729,22.363,26.673,3.574,23.153-4.778,46.755-18.573,65.202-15.052,21.285-41.708,34.451-67.878,31.146-3.556,7.311-7.31,14.531-10.903,21.842-8.424,19.758-13.525,40.863-22.327,60.424-9.538-2.048-17.172-7.939-24.644-13.813,3.107-13.346,8.316-26.081,13.705-38.654,3.538-7.76,6.915-15.914,13.004-22.093-1.563-2.73-3.107-5.46-4.706-8.155.341-.736,1.006-2.227,1.329-2.964,3.089-1.706,6.628-3.071,8.712-6.107,7.49-11.047,10.292-24.32,15.447-36.463,7.544-14.801,18.303-28.039,23.117-44.168-13.382,11.136-29.493,18.555-42.336,30.356-5.173,4.401-7.149,11.065-10.831,16.543-4.383-8.478-7.849-17.405-11.711-26.135,4.347-8.173,9.089-16.812,17.207-21.824,7.346-5.155,16.04-7.724,24.626-9.951,11.208-2.587,20.315-10.041,30.733-14.513M95.503,58.245c-2.91,13.4-8.568,26.009-14.441,38.331-6.484,11.693-13.669,23.225-16.992,36.319,12.196-.323,23.494-6.233,32.385-14.28,11.891-10.723,21.806-24.177,26.476-39.606,1.706-6.718,3.179-15.196-2.191-20.656-7.526-5.335-17.172-2.479-25.236-.108Z"/>
    <path d="M181.81,45.079c2.227-5.64,5.083-11.262,10.49-14.459,6.448,5.389,3.736,14.19,1.168,20.836-1.132,4.239-4.58,7.149-8.155,9.358-2.173-4.975-4.347-10.184-3.503-15.735Z"/>
    <path d="M602.065,41.361c12.933-9.574,29.996-9.358,45.336-8.927,14.693,1.078,31.361,5.173,39.768,18.447,10.705,16.597,8.101,37.684,3,55.736-11.585,29.583-26.045,58.322-44.923,83.972-10.795,13.795-22.56,27.931-38.869,35.313-11.244,5.568-25.434,5.802-36.265-.862-15.268-8.945-25.703-25.129-28.506-42.498-4.67-25.488,2.658-51.048,10.418-75.153,2.676-9.466,8.819-17.567,10.687-27.302.934-5.55,5.496-9.196,8.694-13.471,4.293-3.323,10.184-3.413,14.423-6.825,6.071-5.55,9.143-13.92,16.238-18.429M596.909,84.936c-7.113,18.519-2.82,39.211,4.67,56.921,2.371,5.442,4.868,12.196,11.208,13.992,4.311.988,8.729,1.509,12.915,3.054-8.424,9.286-23.476,11.1-34.163,4.706-12.07-7.346-17.836-21.267-20.171-34.666-3.287,15.806-5.945,31.846-6.071,48.048.09,7.598.718,15.86,5.317,22.219,3.054,4.329,8.873,5.532,13.777,4.095,15.663-4.023,28.344-15.16,37.864-27.841,4.221-5.891,10.256-10.202,14.423-16.13,8.478-11.621,15.501-24.266,21.752-37.217,4.67-10.526,9.143-21.393,10.364-32.942.934-9.053-3.718-18.68-11.783-23.081-20.441-12.286-50.635-3.305-60.101,18.842Z"/>
    <path d="M524.29,37.948c6.879-5.55,16.238-3.359,23.907-.934,4.365,1.581,3.898,6.808,4.49,10.58-6.358,6.808-8.855,15.968-12.771,24.213-17.495,41.187-36.732,81.655-52.521,123.56-3.197,9.538-7.795,18.429-12.25,27.41,20.71,3.628,41.923,1.239,62.723-.287,1.329.162,3.97.503,5.281.665-3.718,3.592-6.736,8.496-11.729,10.508-20.045,4.94-40.324,8.927-60.496,13.292-6.359,1.688-11.262-3.898-15.286-7.921-5.155-4.814-9.394-11.729-7.777-19.04,2.227-10.939,7.095-21.105,11.514-31.29,3.161-7.49,7.939-14.316,9.825-22.309,1.293-5.335,6.233-8.676,8.262-13.633,11.999-29.547,27.23-57.729,37.487-87.977,3.179-8.927,3.988-18.788,9.34-26.835Z"/>
    <path d="M204.999,47.647c1.168-4.257,4.239-7.472,7.562-10.184,3.503,2.155,6.394,5.443,5.317,9.861-1.563,5.784-1.958,14.405-9.035,16.112-.377.629-1.15,1.904-1.527,2.551-1.096.485-3.251,1.437-4.347,1.922-3.305-6.646.126-13.741,2.03-20.261Z"/>
    <path d="M159.699,56.736c2.946-4.041,10.939-3.413,12.124,1.85-.862,1.239-2.587,3.718-3.431,4.975.808,4.922.736,10.4,4.149,14.459,3.736,6.79,11.819,8.46,17.423,13.184,4.94-1.383,10.22-2.856,15.321-1.365,3.485-4.742,9.268-7.293,11.963-12.699-.467-1.653-1.401-4.975-1.886-6.646,4.616-.683,9.628.323,12.07,4.724-1.185,2.964-4.67,4.095-6.143,6.933-3.97,4.922-6.538,11.765-13.13,13.759-3.143,1.617-6.808-.18-10.166.251-4.473.198-6.772,4.526-9.538,7.4-1.06-.341-3.143-1.024-4.203-1.365-.233-1.581-.449-3.143-.665-4.706-1.239-1.545-2.443-3.125-3.61-4.706-9.197-4.437-13.687-13.687-19.83-21.159.718-3.179,1.419-6.359,1.958-9.556-.611-1.347-1.814-4.006-2.407-5.335Z"/>
    <path d="M167.531,110.37c5.694-6.664,16.04-5.011,22.147.162-3.538,14.765-12.555,27.374-18.573,41.151-11.154,22.883-20.423,46.611-28.559,70.68-7.634-3.916-15.986-9.825-16.309-19.291.683-7.364,3.952-14.136,7.005-20.746,6.412-12.232,12.537-24.608,18.932-36.84,5.981-11.316,7.616-24.716,15.357-35.115Z"/>
  </g>
</svg>