<?xml version="1.0" encoding="UTF-8"?>
<svg id="a" data-name="Layer_1" xmlns="http://www.w3.org/2000/svg" viewBox="0 0 735.378 300">
  <g id="b" data-name="qU6JQy">
    <g>
      <path d="M.26,137.137c.284-31.201,15.459-61.788,38.293-82.859,20.429-19.324,47.574-30.794,75.407-33.964,9.608-.896,19.334-.823,28.936-.092,11.881,1.372,23.746,4.106,34.866,8.483,42.957,16.758,75.129,55.863,78.918,102.38.142,1.989.19,4.03.47,5.987.221,1.672-1.053,2.939-2.453,3.703-12.387,7.332-25.529,13.103-39.317,17.137-39.381,11.394-74.986,6.728-110.592-12.976-29.69-14.423-64.727-18.94-96.678-9.743-2.252.65-4.434,1.317-6.692,1.975-.357.102-.899.193-1.128-.005l-.031-.026Z"/>
      <path d="M256.848,145.142c.232.123.183.737.145,1.099-.828,13.256-3.266,26.432-8.455,38.703-.583,1.504-1.787,2.563-3.233,3.222-8.34,4.182-16.919,7.691-25.753,10.453-26.675,8.487-56.701,9.326-83.233.665-7.454-2.374-14.794-5.452-21.804-9.061-3.76-1.971-7.551-3.863-11.412-5.565-14.311-6.32-29.608-10.76-45.259-12.116-16.783-1.75-33.733.003-49.961,4.582-.606.158-1.51.372-1.924.049-.35-.206-.538-.768-.7-1.246-.333-1.132-.619-2.261-.929-3.372-2.232-7.661-3.471-15.612-4.063-23.56-.115-1.455-.23-2.907-.267-4.367-.044-.964.15-1.917,1.043-2.42,11.923-4.405,24.677-6.632,37.348-7.253,18.893-.704,37.791,3.114,55.314,10.054,5.212,2.013,10.176,4.561,15.156,7.077,20.842,11.008,44.337,16.84,67.893,16.377,24.788-.474,49.202-7.388,71.156-18.747,1.712-.884,3.322-1.774,5.018-2.73.916-.514,1.86-1.054,2.812-1.584.296-.179.903-.437,1.081-.277l.028.019Z"/>
      <path d="M241.77,198.895c.08.295-.211.93-.444,1.271-.359.585-.72,1.176-1.081,1.764-6.503,10.74-14.93,20.212-24.225,28.611-1.168,1.117-2.594,1.949-4.166,2.328-29.175,7.456-60.969,5.592-88.404-7.329-4.477-2.091-8.859-4.381-13.314-6.519-27.063-13.121-58.296-18.765-88.061-13.221-.625.112-1.248.2-1.723.008-.63-.237-.975-.949-1.324-1.523-.306-.529-.695-1.002-1.103-1.462-3.639-4.007-5.473-9.072-7.839-13.818-.549-1.389-2.448-3.577-.465-4.551,6.126-1.793,12.457-2.997,18.758-3.877,27.499-3.897,55.433,2.494,79.887,15.04,33.371,18.273,72.775,21.99,109.275,11.529,7.722-2.138,15.241-4.866,22.564-8.043.532-.19,1.009-.499,1.527-.36.055.036.069.026.125.124l.012.029Z"/>
      <path d="M29.765,218.719c.789-.607,2.05-.428,3.014-.614,3.688-.466,7.395-.477,11.111-.511,18.324-.416,36.661,3.647,53.437,10.826,5.834,2.427,11.441,5.361,17.081,8.208,11.153,5.442,22.927,9.293,35.132,11.758,10.729,2.187,21.564,2.72,32.527,2.653.284.006.612.011.857.045.232.032.351.088.328.173-.025.125-.388.317-.872.53-50.383,22.319-117.113,10.194-152.642-33.034l.026-.034Z"/>
      <path d="M356.561,196.392c-.749,0-1.3,0-1.851,0-25.598,0-51.195-.015-76.793.037-1.53.003-1.919-.335-1.918-1.897.048-43.502.04-87.005.032-130.507,0-1.067-.196-1.913,1.512-1.908,25.597.065,51.195.044,76.793.046.299,0,.598.032,1.095.06-1.224,2.632-2.41,5.131-3.546,7.653-.469,1.042-1.349.689-2.09.689-20.825.015-41.65.04-62.475-.034-1.914-.007-2.414.451-2.403,2.389.085,16.112.071,32.224.011,48.336-.006,1.519.324,1.931,1.897,1.926,18.346-.064,36.692-.02,55.037-.082,1.545-.005,2.047.348,1.905,1.91-.151,1.659-.131,3.351-.003,5.014.101,1.303-.418,1.528-1.572,1.52-6.694-.046-13.387-.026-20.081-.026-11.776,0-23.552.024-35.328-.032-1.412-.007-1.858.308-1.853,1.799.055,17.661.061,35.323-.007,52.984-.006,1.62.626,1.737,1.923,1.735,21.569-.03,43.138-.006,64.707-.058,1.403-.003,2.113.362,2.544,1.711.708,2.221,1.594,4.385,2.466,6.737Z"/>
      <path d="M731.414,62.254c-1.219,2.592-2.418,4.959-3.441,7.4-.483,1.152-1.321.913-2.144.914-17.226.008-34.453.007-51.679.008-3.966,0-7.932.038-11.897-.021-1.066-.016-1.333.32-1.331,1.354.03,16.666.041,33.332-.014,49.998-.005,1.432.751,1.232,1.614,1.232,18.342-.002,36.684.029,55.025-.043,1.763-.007,2.421.349,2.2,2.184-.176,1.466-.145,2.98-.005,4.454.143,1.506-.418,1.82-1.842,1.815-15.429-.05-30.859-.032-46.288-.031-3.036,0-6.074.049-9.108-.017-1.134-.024-1.594.174-1.591,1.481.047,17.843.052,35.686-.01,53.529-.005,1.534.706,1.481,1.779,1.481,21.626-.015,43.252.006,64.878-.046,1.414-.003,2.09.402,2.516,1.726.712,2.214,1.591,4.374,2.461,6.72-.767,0-1.318,0-1.869,0-25.592,0-51.184-.015-76.775.038-1.532.003-1.917-.341-1.915-1.899.048-43.554.042-87.109.022-130.663,0-1.102-.026-1.748,1.481-1.745,25.716.054,51.431.038,77.147.04.182,0,.363.042.785.094Z"/>
      <path d="M568.715,133.541c0-20.319-.02-40.637.039-60.956.005-1.576-.418-1.904-1.936-1.897-13.197.065-26.394.01-39.59.073-1.542.007-2.051-.376-1.922-1.938.147-1.784.074-3.591.018-5.386-.028-.921.187-1.435,1.221-1.284.303.044.619.007.928.007,30.483,0,60.966.013,91.449-.038,1.657-.003,2.297.35,2.119,2.092-.163,1.594-.145,3.228.002,4.825.135,1.467-.424,1.725-1.765,1.719-11.4-.052-22.8-.032-34.2-.034-2.045,0-4.091.061-6.133-.021-1.078-.043-1.444.33-1.313,1.358.054.427.009.866.009,1.3,0,40.328-.012,80.655.041,120.983.002,1.704-.429,2.224-2.108,2.08-1.784-.153-3.596-.122-5.385-.005-1.269.083-1.504-.385-1.499-1.552.043-10.531.025-21.062.025-31.593v-29.735Z"/>
      <path d="M388.349,129.114c0-21.685.016-43.37-.035-65.055-.003-1.487.252-2.07,1.874-1.938,2.031.166,4.088.081,6.131.023.897-.026,1.249.265,1.157,1.158-.05.49-.008.99-.008,1.486,0,40.396-.003,80.792.007,121.188,0,2.664-.381,2.366,2.368,2.368,19.52.01,39.04.019,58.559-.028,1.482-.004,2.143.277,1.985,1.912-.154,1.596-.094,3.221-.015,4.828.051,1.053-.285,1.386-1.352,1.357-2.663-.072-5.329-.024-7.993-.024-20.263,0-40.527-.018-60.79.037-1.513.004-1.932-.309-1.928-1.887.06-21.809.04-43.618.04-65.427Z"/>
      <path d="M496.197,129.282c0,21.743-.017,43.486.037,65.229.004,1.525-.318,2.041-1.897,1.917-1.97-.155-3.965-.097-5.944-.013-1.085.046-1.459-.336-1.308-1.365.036-.243.005-.495.005-.743,0-43.362.01-86.724-.039-130.086-.002-1.685.406-2.242,2.108-2.096,1.845.159,3.72.125,5.571.006,1.277-.083,1.495.393,1.491,1.552-.042,11.026-.025,22.053-.025,33.079v32.521Z"/>
      <path d="M310.845,230.925c2.225-6.239,4.385-12.254,6.508-18.283.506-1.436,1.659-.974,2.624-.986,1.063-.013,1.062.808,1.062,1.585-.002,9.227-.016,18.454.017,27.68.004,1.231-.482,1.594-1.658,1.612-1.288.02-1.74-.424-1.73-1.726.049-6.253.022-12.507-.202-18.831-1.042,2.854-2.087,5.707-3.126,8.562-.687,1.887-1.396,3.768-2.033,5.672-.237.708-.457,1.197-1.361,1.105-.744-.075-1.263-.01-1.606-1.001-1.597-4.599-3.353-9.144-5.058-13.705-.033-.089-.141-.15-.348-.361,0,6.234-.045,12.331.031,18.425.019,1.548-.589,1.89-1.981,1.854-1.388-.036-1.41-.83-1.407-1.844.019-5.264.009-10.527.008-15.791,0-3.715-.022-7.431.011-11.146.007-.837-.416-1.979,1.09-2.107,1.298-.11,2.158.017,2.673,1.612,1.739,5.389,3.716,10.701,5.622,16.035.182.51.507.97.865,1.638Z"/>
      <path d="M479.301,230.805c2.172-6.028,4.37-12.035,6.484-18.071.427-1.22,1.262-1.157,2.189-1.088,1.031.077,1.53.657,1.529,1.701-.005,9.232-.021,18.464.015,27.695.005,1.362-.732,1.45-1.777,1.481-1.229.037-1.611-.483-1.603-1.664.036-5.762.013-11.524.01-17.286,0-.52,0-1.041-.256-1.598-1.641,4.501-3.297,8.996-4.911,13.506-.34.951-.523,1.825-1.882,1.843-1.387.019-1.332-.986-1.63-1.797-1.612-4.386-3.222-8.772-5.074-13.133,0,6.081-.03,12.162.024,18.242.012,1.316-.307,1.94-1.751,1.896-1.182-.036-1.644-.404-1.64-1.632.033-9.232.015-18.464.01-27.695,0-.788.039-1.591,1.1-1.55.932.037,1.97-.481,2.49,1.076,1.933,5.778,4.043,11.496,6.074,17.242.103.292.119.609.599.831Z"/>
      <path d="M652.874,221.604c-1.642,4.496-3.284,8.993-4.927,13.488-.167.458-.381.901-.515,1.368-.246.857-.896.85-1.595.841-.715-.009-1.046-.299-1.297-1.016-1.552-4.423-3.179-8.821-4.785-13.225-.138-.379-.311-.745-.753-1.049,0,6.213,0,12.425,0,18.638,0,.863.163,1.767-1.177,1.861-1.257.089-1.852-.097-1.838-1.637.081-9.1.036-18.201.046-27.302,0-.82-.275-1.853,1.085-1.932,1.145-.066,2.004-.045,2.498,1.447,1.968,5.946,4.137,11.826,6.353,18.073.726-1.963,1.353-3.65,1.974-5.339,1.597-4.343,3.282-8.657,4.734-13.048.484-1.463,1.408-1.099,2.322-1.113,1.223-.019,1.111.909,1.111,1.714.002,9.163-.023,18.326.022,27.488.007,1.37-.584,1.634-1.787,1.677-1.439.051-1.21-.851-1.21-1.701,0-5.82,0-11.639,0-17.459,0-.579,0-1.158,0-1.737-.086-.013-.172-.026-.258-.039Z"/>
      <path d="M371.244,232.811c0-6.375.02-12.75-.017-19.125-.007-1.266.064-2.12,1.734-2.097,1.57.022,1.643.831,1.64,2.011-.022,8.976-.007,17.951-.02,26.927-.001.814.292,1.89-1.054,1.956-1.034.05-2.025.316-2.602-1.193-2.412-6.315-4.996-12.564-7.517-18.837-.13-.324-.201-.694-.72-.863,0,6.35-.029,12.642.023,18.934.011,1.358-.244,2.062-1.824,2.022-1.445-.037-1.565-.763-1.56-1.896.028-6.623.015-13.247.015-19.87,0-2.414-.013-4.828.004-7.242.006-.763-.258-1.801.945-1.852.972-.041,2.036-.537,2.652,1.07,2.583,6.751,5.352,13.431,8.053,20.136.083-.027.166-.054.248-.081Z"/>
      <path d="M531.897,220.97c0,6.738-.022,13.174.019,19.61.008,1.245-.178,1.961-1.685,1.962-1.498.002-1.706-.689-1.701-1.949.036-8.852.023-17.704.009-26.557-.002-1.101.001-2.094,1.4-2.409,1.582-.356,2.196.566,2.68,1.796,2.509,6.375,5.03,12.745,7.828,19.055,0-6.157.003-12.315-.004-18.472-.001-.811-.082-1.628.743-2.145.634-.398,1.353-.321,1.976-.134.857.257.636,1.101.637,1.752.008,9.038.005,18.076-.004,27.114,0,.832.244,1.801-1.116,1.909-1.216.097-2.078-.102-2.59-1.429-2.499-6.475-5.08-12.919-7.639-19.371-.062-.156-.207-.28-.551-.731Z"/>
      <path d="M706.679,233.208c0-6.558.01-13.115-.01-19.673-.003-1.092.024-1.987,1.521-1.92.989.044,1.482.342,1.48,1.403-.017,9.481-.013,18.962-.003,28.443,0,.65-.139,1.144-.907,1.026-.877-.135-1.931.489-2.481-.927-2.411-6.198-4.921-12.357-7.397-18.53-.288-.717-.59-1.428-1.122-2.115,0,5.714,0,11.427,0,17.141,0,.929-.101,1.873.023,2.785.205,1.506-.501,1.74-1.799,1.698-1.034-.034-1.216-.438-1.214-1.343.021-9.357.009-18.714.003-28.071,0-.727.065-1.479.998-1.452.878.026,1.857-.468,2.416.976,2.66,6.878,5.465,13.7,8.219,20.542.091.006.183.012.274.018Z"/>
      <path d="M582.846,227.307c0-2.911.126-5.829-.026-8.732-.333-6.372,4.822-7.905,9.216-7.119,5.002.895,7.456,5.537,6.04,10.491-.328,1.148-1.232.782-1.98.836-.797.058-1.298-.226-1.35-1.122-.078-1.352.174-2.714-.177-4.06-.648-2.484-1.451-3.281-4.015-3.328-2.824-.052-4.468,1.21-4.4,4.094.132,5.634.037,11.272.04,16.909.002,3.349.947,4.544,3.589,4.621,4.455.129,4.501-1.419,4.926-4.534.207-1.52-.015-3.095.054-4.64.045-.999-.34-1.322-1.291-1.25-.801.061-1.612-.021-2.415.025-1.116.064-1.537-.415-1.544-1.531-.007-1.175.536-1.501,1.598-1.474,1.734.045,3.469.023,5.203.017,1.115-.004,1.808.503,1.764,1.646-.124,3.197.269,6.397-.315,9.598-.457,2.505-1.71,4.219-4.151,4.748-3.214.697-6.456.974-9.165-1.561-1.15-1.076-1.59-2.445-1.598-3.97-.015-3.221-.005-6.442-.005-9.663Z"/>
      <path d="M287.38,242.49c-.986.073-1.63-.099-1.711-1.35-.086-1.325-.574-2.619-.743-3.944-.257-2.016-1.248-2.828-3.306-2.536-1.395.197-3.137-.36-4.158.297-1.031.664-.778,2.558-1.103,3.91-.213.886-.558,1.756-.638,2.652-.076.852-.46.966-1.183.996-2.027.082-2.255-.047-1.827-2.055,1.091-5.117,2.27-10.215,3.44-15.314.924-4.029,1.976-8.032,2.781-12.084.252-1.268.807-1.394,1.851-1.458,1.16-.071,1.536.36,1.781,1.463,1.751,7.897,3.577,15.777,5.395,23.659.287,1.245.676,2.465.989,3.704.335,1.327.092,2.25-1.568,2.059ZM280.73,219.203c-.703,3.149-1.232,5.768-1.877,8.359-1.085,4.354-.786,4.716,3.712,4.148.061-.008.124-.005.185-.004.567.007.791-.297.671-.821-.851-3.724-1.713-7.446-2.691-11.681Z"/>
      <path d="M563.352,234.689q-3.522,0-4.308,3.381c-.234,1.005-.626,2-.679,3.014-.097,1.84-1.391,1.474-2.414,1.377-1.424-.135-.858-1.082-.665-1.928,1.936-8.479,3.841-16.964,5.75-25.449.134-.594.202-1.202.341-1.795.356-1.529,1.557-2.141,3.081-1.637.356.118.459.304.534.633,1.483,6.524,2.975,13.045,4.47,19.566.666,2.907,1.304,5.821,2.035,8.711.243.96.418,1.85-.855,1.884-.889.024-2.28.79-2.372-1.252-.068-1.491-.797-2.942-.991-4.441-.216-1.672-.983-2.332-2.627-2.073-.423.067-.865.01-1.299.01ZM563.319,219.143c-.914,3.971-1.781,7.806-2.687,11.631-.202.852.232.94.878.936,1.478-.009,2.955-.003,4.58-.003-.937-4.249-1.837-8.329-2.771-12.564Z"/>
      <path d="M515.504,242.47c-1.396.402-1.585-.661-1.806-1.617-.398-1.718-.823-3.435-1.086-5.175-.124-.821-.444-1.019-1.179-.996-1.175.036-2.353-.01-3.53.011-3.003.053-2.32-.486-3.13,2.596-.34,1.293-.564,2.62-.775,3.942-.245,1.536-1.365,1.351-2.394,1.239-1.209-.131-1.051-1.123-.888-1.862,1.078-4.87,2.214-9.727,3.342-14.585.963-4.147,1.942-8.289,2.91-12.435.229-.979.182-2.013,1.76-2.003,1.476.009,1.766.659,2.05,1.927,2.023,9.015,4.146,18.008,6.242,27.007.294,1.26.282,2.264-1.516,1.952ZM509.062,219.993c-.126.008-.252.017-.378.025-.569,2.577-1.124,5.157-1.711,7.73-.917,4.021-.925,3.96,3.21,4,1.276.013,1.493-.386,1.232-1.493-.806-3.416-1.572-6.841-2.353-10.262Z"/>
      <path d="M334.424,227.081c-.001-4.523.047-9.048-.029-13.57-.025-1.478.481-1.948,1.937-1.902,2.91.093,5.825.048,8.737.014,1.153-.013,2.007,0,2.052,1.599.047,1.66-.943,1.388-1.904,1.389-1.983.002-3.968.048-5.949-.019-1.071-.037-1.558.203-1.519,1.415.086,2.662.085,5.33-.002,7.992-.04,1.219.465,1.451,1.527,1.411,1.733-.066,3.471.025,5.205-.032,1.167-.039,1.504.497,1.493,1.573-.01,1.034-.426,1.448-1.452,1.428-1.859-.037-3.719.024-5.577-.022-.884-.022-1.195.3-1.184,1.182.038,2.912.051,5.825-.003,8.737-.018.995.345,1.285,1.293,1.261,2.106-.053,4.214-.002,6.321-.027,1.22-.014,2.055.345,2.072,1.747.018,1.507-1.086,1.232-1.969,1.238-3.037.019-6.077-.081-9.109.038-1.633.064-1.99-.586-1.965-2.067.074-4.46.027-8.923.026-13.384Z"/>
      <path d="M676.113,242.497c-1.611,0-3.228-.074-4.833.026-1.193.074-1.441-.388-1.437-1.49.038-9.233.041-18.467,0-27.7-.006-1.305.449-1.75,1.731-1.724,3.098.063,6.198.063,9.296.009,1.187-.021,1.681.369,1.667,1.597-.014,1.221-.65,1.423-1.663,1.407-2.169-.036-4.34.031-6.507-.028-1.042-.028-1.588.147-1.548,1.391.087,2.724.065,5.453.006,8.179-.022,1.009.361,1.271,1.3,1.242,1.796-.055,3.596.041,5.391-.028,1.321-.052,1.49.644,1.537,1.733.051,1.178-.523,1.295-1.463,1.272-1.858-.047-3.719.023-5.577-.025-.879-.022-1.195.279-1.183,1.169.04,2.912.046,5.825-.003,8.737-.016.965.292,1.301,1.272,1.276,2.292-.058,4.587.019,6.879-.03,1.112-.024,1.556.389,1.558,1.517.002,1.156-.504,1.519-1.588,1.485-1.61-.052-3.222-.013-4.834-.012Z"/>
      <path d="M611.108,227.059c-.001-4.517.047-9.035-.029-13.551-.025-1.477.481-1.946,1.935-1.899,2.906.093,5.817.047,8.726.02,1.25-.012,2.036.399,2.012,1.783-.026,1.488-1.137,1.186-2.015,1.196-2.104.023-4.21.055-6.312-.015-1.066-.036-1.381.34-1.358,1.38.06,2.721.055,5.446.002,8.167-.019.973.304,1.302,1.275,1.269,1.793-.062,3.59.018,5.384-.029,1.087-.028,1.577.346,1.568,1.498-.008,1.13-.461,1.537-1.565,1.504-1.793-.053-3.591.03-5.383-.03-.969-.032-1.296.302-1.278,1.274.051,2.846.06,5.694-.001,8.539-.022,1.046.301,1.409,1.361,1.376,2.226-.068,4.456.014,6.683-.038,1.165-.028,1.688.353,1.669,1.597-.019,1.219-.652,1.422-1.659,1.414-3.156-.027-6.314-.066-9.468.013-1.209.03-1.588-.31-1.57-1.543.068-4.64.027-9.282.026-13.923Z"/>
      <path d="M434.062,225.526c1.581-4.29,3.046-8.216,4.467-12.157.349-.968.611-1.827,1.948-1.765,1.571.074,1.98.48,1.419,2.014-1.901,5.2-3.837,10.388-5.824,15.556-.319.83-.505,1.618-.499,2.496.022,3.094-.032,6.189.026,9.282.024,1.271-.559,1.577-1.694,1.575-1.128-.003-1.744-.288-1.688-1.571.075-1.729-.144-3.482.047-5.194.487-4.374-.888-8.32-2.47-12.259-1.293-3.22-2.522-6.466-3.727-9.72-.275-.743-.496-1.772.538-2.037.987-.254,2.141-.522,2.667,1.052,1.293,3.865,2.727,7.683,4.118,11.515.12.331.342.624.674,1.213Z"/>
      <path d="M408.058,228.182c-.001-3.965-.044-7.931.023-11.895.021-1.241-.256-1.861-1.625-1.693-.794.097-1.611-.018-2.414.029-1.082.064-1.589-.326-1.585-1.483.004-1.128.453-1.527,1.559-1.516,3.842.037,7.684.03,11.526.003,1.013-.007,1.457.37,1.468,1.414.011,1.075-.333,1.673-1.492,1.572-.062-.005-.124-.002-.186,0q-3.925.134-3.925,4.166c0,7.187-.007,14.374.007,21.561.002,1.164.135,2.185-1.623,2.214-1.86.031-1.749-1.045-1.741-2.289.024-4.027.009-8.054.008-12.082Z"/>
      <path d="M729.743,228.549c0,3.964-.03,7.928.018,11.891.015,1.272-.081,2.114-1.736,2.11-1.748-.005-1.64-1.028-1.638-2.2.013-7.803-.048-15.608.044-23.41.021-1.783-.302-2.714-2.286-2.345-.539.1-1.112.007-1.67.018-.854.018-1.639.003-1.66-1.189-.02-1.15.519-1.762,1.636-1.777,2.477-.033,4.955-.011,7.433-.012,1.177,0,2.357.054,3.53-.015,1.258-.073,1.936.206,1.963,1.698.028,1.565-.926,1.283-1.823,1.29q-3.811.029-3.811,3.906c0,3.344,0,6.689,0,10.033Z"/>
      <path d="M387.976,227.067c-.001-4.519.013-9.038-.011-13.557-.006-1.1.052-1.975,1.541-1.891,1.338.076,1.831.703,1.828,1.993-.021,9.1-.028,18.2.007,27.3.005,1.233-.472,1.605-1.645,1.62-1.268.016-1.758-.409-1.742-1.722.058-4.58.023-9.162.021-13.743Z"/>
    </g>
  </g>
</svg>