<?xml version="1.0" encoding="UTF-8"?>
<svg id="a" data-name="Layer_1" xmlns="http://www.w3.org/2000/svg" viewBox="0 0 591.691 300">
  <path d="M591.691,149.89c-.131.028-.344.016-.382.091-.586,1.167-.993,2.456-1.744,3.502-5.504,7.674-11.361,15.056-18.554,21.26-5.368,4.63-11.186,8.481-18.143,10.407-3.753,1.039-7.551,1.288-11.377,1.005-7.477-.552-13.61-3.551-17.5-10.23-1.578-2.709-2.433-5.692-2.842-8.797-.125-.947-.223-1.898-.351-2.997-.81,1.036-1.554,2.006-2.317,2.961-4.465,5.581-9.314,10.762-15.297,14.786-3.284,2.209-6.848,3.803-10.758,4.27-6.682.797-11.892-1.534-14.452-8.469-1-2.709-.887-5.626-.615-8.542.408-4.369,1.22-8.642,2.369-12.859.866-3.178,1.903-6.311,2.733-9.498.977-3.752,1.868-7.529,2.682-11.32.319-1.484.433-3.033.458-4.556.069-4.135-3.476-6.348-7.215-4.516-2.931,1.437-5.329,3.575-7.539,5.942-7.594,8.136-13.102,17.535-16.775,27.991-1.51,4.3-2.688,8.717-3.991,13.088-.909,3.049-2.899,5.282-5.402,7.088-3.696,2.667-7.764,4.629-12.16,5.829-1.241.339-2.601.3-3.909.324-.975.018-1.777-1.299-1.407-2.232.87-2.193,1.898-4.331,2.631-6.567.826-2.521,1.406-5.123,2.08-7.694.351-1.338.686-2.681,1.004-4.027.088-.373.088-.767.148-1.331-4.145,5.406-8.544,10.284-13.649,14.484-3.022,2.486-6.279,4.602-10.031,5.868-3.335,1.126-6.759,1.514-10.195.794-5.111-1.071-8.287-4.361-9.319-9.381-.523-2.541-.397-5.242-.351-7.866.078-4.449,1.077-8.76,2.258-13.036,1.336-4.842,2.714-9.679,3.84-14.571.647-2.81.83-5.725,1.227-8.593.234-1.688.015-3.271-.931-4.741-1.01-1.569-3.781-2.471-5.712-1.653-3.509,1.488-6.318,3.901-8.821,6.647-8.112,8.898-14.748,18.794-19.418,29.903-1.443,3.433-2.297,7.116-3.375,10.699-.662,2.201-1.861,4.047-3.55,5.57-3.568,3.217-7.733,5.411-12.302,6.8-1.675.509-3.453.774-5.204.912-1.389.11-1.923-.63-1.657-2.011.149-.776.539-1.504.788-2.265,1.101-3.363,2.232-6.717,3.27-10.099.825-2.686,1.545-5.404,2.285-8.115.69-2.531,1.355-5.068,2.01-7.608.897-3.478,1.779-6.961,2.654-10.445.095-.377.1-.776.165-1.318-4.141,2.557-8.46,4.218-12.917,5.546-.971.289-1.192,1.086-1.474,1.85-1.564,4.224-3.478,8.277-5.892,12.087-5.726,9.038-13.2,16.059-23.421,19.73-2.545.914-5.311,1.236-7.989,1.758-2.814.549-5.61.349-8.361-.451-3.037-.883-7.023-3.782-7.601-7.823-.861-6.015,1.464-10.84,5.652-14.896,3.537-3.425,7.861-5.653,12.462-7.251,4.352-1.512,8.808-2.729,13.219-4.072.104-.032.224-.016.337-.015,1.576.025,2.428-.772,2.716-2.295.661-3.5,1.466-6.978,1.995-10.498.394-2.623.521-5.294.618-7.949.042-1.138-.155-2.331-.485-3.426-.829-2.748-3.111-3.634-5.811-3.197-2.362.382-4.363,1.674-6.254,3.08-4.911,3.65-8.924,8.181-12.646,12.984-5.647,7.288-10.679,14.96-13.929,23.633-1.136,3.031-1.781,6.253-2.549,9.413-1.432,5.887-2.817,11.786-4.17,17.692-1.12,4.889-2.126,9.805-3.255,14.693-1.233,5.342-2.591,10.656-3.818,15.999-1.218,5.305-2.314,10.638-3.516,15.947-.904,3.989-1.901,7.957-2.84,11.939-.705,2.99-1.434,5.976-2.059,8.983-.425,2.047-1.473,3.721-2.895,5.154-3.593,3.623-8.058,5.818-12.794,7.52-.9.323-1.865.465-2.79.725-.104.029-.146.282-.216.431h-3.187c.025-.114.099-.314.068-.331-1.452-.825-.927-1.951-.523-3.099,1.268-3.597,2.614-7.172,3.728-10.817,1.155-3.778,2.099-7.622,3.09-11.449,1.117-4.315,2.208-8.637,3.264-12.966,1.272-5.214,2.513-10.436,3.736-15.661,1.058-4.522,2.087-9.052,3.103-13.584,1.133-5.055,2.228-10.118,3.357-15.174.904-4.048,1.832-8.09,2.751-12.134.429-1.886.87-3.77,1.287-5.659.059-.269.008-.563.008-.845l-.385-.316c-.147.3-.231.659-.45.89-4.578,4.812-9.289,9.46-15.328,12.492-4.157,2.087-8.541,3.193-13.191,2.753-2.253-.213-4.219-1.308-5.649-3.136-1.633-2.088-2.493-4.477-2.519-7.135-.024-2.422-.103-4.85.027-7.266.098-1.812.493-3.607.75-5.411.068-.479.114-.962-.003-1.522-.559.817-1.126,1.628-1.675,2.452-3.412,5.113-7.092,10.006-11.726,14.106-3.952,3.496-8.323,6.262-13.563,7.368-4.67.986-9.317,1.255-13.576-1.488-3.823-2.463-5.643-6.222-6.626-10.499-.9-3.92-.898-7.925-.442-11.836,1.568-13.46,6.858-25.347,16.015-35.405,5.059-5.557,11.095-9.743,18.28-12.21,4.831-1.659,9.78-2.382,14.849-1.966,5.433.445,9.837,2.756,12.603,7.655.274.486.489,1.005.803,1.657.218-.174.506-.316.669-.547,3.005-4.24,7.054-7.15,11.88-8.906,1.389-.505,3.051-.343,4.587-.336.82.004,1.3.948,1.051,1.928-.228.897-.462,1.829-.907,2.627-3.803,6.817-6.365,14.133-8.786,21.51-1.92,5.852-3.556,11.78-4.615,17.849-.559,3.202-.887,6.444-1.402,9.655-.282,1.759-.361,3.472.304,5.155,1.181,2.986,3.213,3.306,5.774,2.579,1.763-.5,3.441-1.572,4.936-2.684,4.168-3.1,7.577-6.988,10.595-11.169.793-1.099.835-2.757,1.155-4.174.561-2.484,1.087-4.976,1.598-7.471.629-3.07,1.231-6.145,1.837-9.219.77-3.902,1.334-7.858,2.359-11.692.945-3.535,3.348-6.209,6.298-8.354,4.097-2.978,8.631-5.056,13.534-6.271,1.333-.331,2.777-.282,4.171-.285,1.071-.002,1.693,1.137,1.289,2.338-.25.744-.618,1.465-1.033,2.134-1.632,2.624-2.823,5.418-3.617,8.408-1.428,5.378-2.944,10.733-4.415,16.1-.291,1.061-.546,2.133-.589,3.318.254-.412.503-.828.764-1.237,5.317-8.323,11.121-16.249,18.814-22.593,4.15-3.422,8.681-6.192,14.006-7.403,5.049-1.148,9.955-1.182,14.308,2.218,2.867,2.239,4.389,5.309,5.339,8.715,1.113,3.992.749,8.088.644,12.136-.077,2.982-.647,5.952-1.025,9.167,1.134-.369,2.205-.698,3.264-1.065,3.362-1.165,6.58-2.623,9.517-4.661.74-.513,1.158-1.066,1.364-2.037.873-4.109,1.932-8.179,2.911-12.267,1.363-5.694,2.659-11.405,4.089-17.082,1.178-4.674,2.49-9.314,3.78-13.959,1.513-5.448,3.015-10.901,4.62-16.323,1.366-4.612,2.699-9.246,4.352-13.759,3.413-9.322,7.484-18.329,14.306-25.771,3.389-3.697,7.335-6.655,12.202-8.18.884-.277,1.834-.342,2.754-.505,1.986-.04,3.972-.08,5.959-.12.69.092,1.4.109,2.067.287,5.091,1.361,8.177,5.299,8.382,10.211.114,2.718-.013,5.496-.462,8.175-.656,3.92-1.505,7.832-2.619,11.646-1.762,6.032-4.275,11.794-7.039,17.439-9.399,19.198-21.36,36.758-34.412,53.624-.777,1.004-1.66,2.059-2.008,3.233-1.003,3.38-1.756,6.834-2.653,10.44.268-.295.46-.456.589-.656,3.272-5.06,6.903-9.847,10.905-14.355,4.622-5.205,9.626-9.98,15.651-13.56,4.452-2.645,9.143-4.205,14.483-3.438,4.916.706,8.988,3.791,9.77,8.806.554,3.548.245,7.279-.061,10.897-.241,2.861-.986,5.692-1.643,8.505-1.161,4.972-2.442,9.917-3.639,14.881-1.039,4.309-1.955,8.649-1.803,13.112.084,2.473,1.497,4.22,3.614,4.588,1.308.227,2.837.059,4.075-.422,1.41-.547,2.699-1.53,3.882-2.514,5.64-4.695,10.014-10.509,14.306-16.384.364-.498.591-1.141.726-1.751.568-2.552,1.036-5.126,1.617-7.674,1.031-4.519,2.124-9.024,3.18-13.538.799-3.418,1.947-6.632,4.398-9.31,3.321-3.628,7.361-6.125,11.846-7.995,2.832-1.18,5.746-1.982,8.858-1.856.978.04,1.661.377,1.509,1.482-.1.728-.173,1.541-.545,2.138-3.018,4.853-4.907,10.154-6.412,15.62-.608,2.21-1.276,4.403-1.916,6.604.355-.027.56-.152.699-.329,2.834-3.591,5.533-7.298,8.522-10.755,3.678-4.253,7.851-8.019,12.787-10.803,1.948-1.099,4.012-2.092,6.142-2.747,2.686-.826,5.485-.949,8.329-.543,4.188.598,7.37,2.555,9.326,6.316,1.962,3.773,1.429,7.812.992,11.788-.261,2.373-.733,4.735-1.28,7.062-.997,4.241-2.104,8.457-3.199,12.675-.552,2.125-1.284,4.209-1.745,6.352-.7,3.249-1.295,6.525-1.814,9.808-.265,1.675-.089,3.353.846,4.869,1.137,1.843,3.374,2.681,5.327,1.784,1.398-.642,2.77-1.416,3.995-2.34,4.422-3.337,7.876-7.621,11.449-11.794,1.571-1.835,2.402-3.844,2.721-6.214.803-5.97,2.757-11.588,5.666-16.856,5.866-10.624,14.448-18.105,26.029-21.965,3.582-1.194,7.306-1.869,11.128-1.679,1.163.058,2.323.185,3.486.215,4.684.121,9.334,4.013,10.104,8.643.657,3.948.289,7.87-.997,11.65-1.923,5.653-5.411,10.264-9.914,14.127-6.019,5.164-12.884,8.628-20.713,10.116-1.131.215-2.259.448-3.574.709.212,2.084.445,4.126.62,6.173.242,2.822,1.05,5.471,2.593,7.835,1.873,2.87,4.56,4.539,8.048,4.304,2.019-.136,4.073-.577,5.99-1.234,4.585-1.572,8.443-4.392,11.978-7.631,5.753-5.272,10.697-11.228,14.943-17.775,1.444-2.226,2.387-2.441,4.689-1.483-.002.692-.004,1.384-.006,2.076ZM228.621,127.008c0-.189-.002-.379,0-.568.098-6.707-4.79-9.21-10.559-7.886-3.435.789-6.058,3.068-8.36,5.619-7.268,8.05-11.487,17.713-14.486,27.957-.895,3.057-1.275,6.264-1.89,9.402-.581,2.963-.564,5.891.166,8.854.944,3.834,4.097,5.67,7.672,3.786,1.487-.783,2.9-1.81,4.129-2.958,5.654-5.281,9.834-11.696,13.502-18.408,2.685-4.912,5.023-10.026,7.27-15.157,1.47-3.356,2.668-6.865,2.557-10.641ZM371.112,120.202c.903-1.16,1.664-2.092,2.376-3.06,6.082-8.259,11.622-16.87,16.66-25.797,6.306-11.174,12.172-22.549,15.849-34.92,1.281-4.308,2.265-8.623,2.019-13.161-.119-2.185-2.217-4.149-4.35-3.757-1.713.315-3.338.988-4.489,2.357-1.139,1.355-2.39,2.707-3.15,4.273-2.263,4.662-4.491,9.357-6.389,14.174-1.798,4.563-3.171,9.294-4.712,13.958-1.654,5.006-3.32,10.008-4.915,15.033-1.074,3.384-2.044,6.802-3.044,10.209-.772,2.63-1.512,5.268-2.279,7.899-.621,2.13-1.287,4.246-1.886,6.382-.573,2.044-1.086,4.105-1.691,6.41ZM542.931,151.638c1.55-.223,2.672-.312,3.76-.554,7.922-1.758,14.381-5.906,19.467-12.157,3.479-4.276,5.601-9.099,5.28-14.757-.12-2.117-.931-3.865-2.874-4.906-1.881-1.008-3.964-.987-5.941-.626-2.603.475-4.801,1.903-6.754,3.691-3.175,2.907-5.606,6.378-7.336,10.267-1.574,3.54-2.965,7.184-4.105,10.884-.775,2.513-.978,5.202-1.497,8.158ZM311.805,155.823c-2.395.657-4.525,1.16-6.603,1.826-5.093,1.632-10.033,3.612-14.329,6.899-2.618,2.003-4.547,4.48-5.244,7.781-.651,3.085,1.329,6.378,4.887,6.594,3.829.233,6.804-1.696,9.496-4.097,5.692-5.078,8.988-11.665,11.793-19.004Z"/>
  <path d="M.366,161.955c1.442-7.383,7.035-13.886,14.735-16.606,3.417-1.207,7.001-1.422,10.566-1.118,6.671.568,12.924,2.609,18.65,6.062,3.655,2.204,7.15,4.669,10.719,7.015.152.1.32.177.634.349.746-1.347,1.516-2.634,2.188-3.971,2.555-5.084,4.458-10.409,5.745-15.948.927-3.991,1.802-7.995,2.727-11.987,1.125-4.856,2.282-9.704,3.42-14.557,1.008-4.299,2.031-8.594,3.009-12.899,1.213-5.333,2.58-10.641,3.539-16.021,2.369-13.29,9.516-23.273,20.756-30.479,3.175-2.035,6.471-3.899,9.813-5.649.988-.517,2.329-.527,3.499-.486,1.164.04,1.717,1.574,1.104,3.038-.374.894-.945,1.717-1.502,2.521-2.002,2.889-4.205,5.654-6.017,8.655-2.632,4.358-4.359,9.129-5.573,14.072-1.207,4.913-2.429,9.823-3.566,14.753-1.342,5.821-2.621,11.657-3.889,17.494-1.109,5.106-2.128,10.231-3.253,15.333-.995,4.514-2.094,9.006-3.121,13.514-.649,2.848-1.105,5.747-1.899,8.552-2.388,8.43-6.252,16.113-12.057,22.75-.481.55-.635.866.096,1.292,4.216,2.459,8.634,4.434,13.312,5.87,4.955,1.521,10.03,1.841,15.136,1.558,14.267-.792,26.058-6.524,34.943-17.844,4.472-5.697,7.859-11.993,10.073-18.884,1.248-3.883,2.445-7.792,3.426-11.749.733-2.957,1.121-6.003,1.596-9.02.823-5.226,1.247-10.482,1.151-15.779-.062-3.419.202-6.857-.067-10.256-.462-5.837-1.486-11.597-3.378-17.173-5.302-15.629-16.042-25.863-31.383-31.546-4.496-1.665-9.145-2.784-13.864-3.516-3.387-.526-6.833-.743-10.261-.925-3.5-.186-7.016-.301-10.517-.188-2.98.096-5.97.425-8.914.901-2.978.481-5.934,1.166-8.85,1.944-8.831,2.355-17.061,5.985-24.181,11.826-5.737,4.707-9.981,10.448-12.239,17.599-1.292,4.094-1.376,8.272-1.101,12.459.524,7.988,5.213,14.251,13.052,15.941,6.715,1.447,12.705.265,17.55-4.836,2.167-2.282,3.434-5.028,3.33-8.297-.049-1.549-.853-2.741-1.52-4.037-.594-1.154-1.27-2.383-1.405-3.634-.388-3.589,1.689-5.2,4.407-6.033,2.754-.844,5.683.779,6.433,3.623.46,1.745.724,3.607.671,5.405-.061,2.105-.329,4.263-.912,6.282-2.742,9.501-9.044,15.307-18.684,17.589-3.384.801-6.838.966-10.208.583-4.958-.563-9.466-2.545-13.31-5.823-4.465-3.808-7.063-8.677-8.027-14.419-.943-5.614-.539-11.174.941-16.652,2.142-7.928,6.489-14.506,12.506-20.027,7.998-7.34,17.512-11.924,27.82-14.963,4.005-1.181,8.093-2.127,12.191-2.938,2.741-.542,5.566-.656,8.354-.963.783-.086,1.565-.178,2.348-.267,1.668.001,3.336.003,5.004.004l.245-.006c.144-.001.288-.002.432-.003,3.579-.004,7.159-.008,10.738-.012,1.327.015,2.661-.052,3.98.062,3.901.337,7.817.602,11.687,1.166,3.916.571,7.845,1.244,11.664,2.263,10.967,2.927,21.089,7.577,29.611,15.265,8.101,7.308,13.54,16.308,16.646,26.686,1.155,3.858,1.953,7.846,2.583,11.827.507,3.201.533,6.48.738,9.727.114,1.797.28,3.603.207,5.396-.134,3.325-.392,6.647-.665,9.965-.183,2.221-.342,4.459-.755,6.644-1.129,5.976-2.442,11.914-4.483,17.664-4.064,11.448-9.906,21.86-18.409,30.622-7.478,7.705-16.376,13.257-26.701,16.359-3.379,1.015-6.845,1.846-10.33,2.38-4.874.746-9.814.948-14.752.741-5.107-.213-10.021-1.37-14.834-3.05-6.758-2.359-12.863-5.939-18.765-9.9-.614-.412-.973-.438-1.549.043-4.511,3.765-9.591,6.563-15.037,8.737-4.196,1.675-8.561,2.749-12.998,3.458-4.652.743-9.381,1.096-14.069.659-7.544-.703-14.189-3.297-18.362-10.162-2.768-4.553-3.464-9.456-2.572-14.023ZM22.442,150.125c-1.098,0-2.212-.116-3.289.033-1.064.147-2.112.502-3.131.867-8.137,2.919-11.62,13.18-5.376,19.778,3.189,3.369,7.301,4.817,11.796,5.136,1.992.142,4.02-.291,6.035-.395,2.977-.155,5.804-.946,8.581-1.942,5.465-1.96,9.981-5.309,13.909-9.517.422-.453.431-.724-.087-1.063-4.614-3.021-9.109-6.244-13.866-9.02-4.438-2.589-9.309-4.114-14.573-3.876Z"/>
  <path d="M86.803,29.036c3.553-.022,7.105-.044,10.658-.067.022.152.045.305.067.457-3.579.004-7.159.008-10.738.012.004-.134.008-.269.013-.403Z"/>
  <path d="M397.537,28.811c1.434.067,2.868.163,4.303.19.689.013,1.381-.105,2.072-.163-.012.153-.024.307-.037.46-1.986.04-3.972.08-5.959.12-.126-.202-.253-.404-.379-.607Z"/>
  <path d="M86.803,29.036c-.004.134-.008.269-.013.403l-.432.003c-.082.002-.163.004-.245.006-1.668-.001-3.336-.003-5.004-.004,0-.062,0-.125.003-.187.017-.031.035-.063.052-.094-.016.032-.033.065-.049.097-.078-.14-.155-.28-.233-.42,1.974.066,3.947.131,5.921.197Z"/>
  <path d="M86.113,29.448c.082-.002.163-.004.245-.006-.082.002-.163.004-.245.006Z"/>
  <path d="M81.115,29.259c.016-.032.033-.065.049-.097-.017.031-.035.063-.052.094,0,0,.003.003.003.003Z"/>
</svg>